<svg width="768" height="227" viewBox="0 0 768 227" fill="none" xmlns="http://www.w3.org/2000/svg">
<mask id="mask0" mask-type="alpha" maskUnits="userSpaceOnUse" x="0" y="0" width="768" height="227">
<rect width="768" height="227" fill="#272A3E"/>
<rect width="768" height="227" fill="url(#paint0_linear)"/>
</mask>
<g mask="url(#mask0)">
<path d="M294.595 344.738C294.595 261.582 366.311 194.171 454.777 194.171L904.398 194.171C992.864 194.171 1064.58 261.582 1064.58 344.738C1064.58 427.894 992.864 495.305 904.398 495.305L454.777 495.305C366.311 495.305 294.595 427.894 294.595 344.738Z" fill="url(#paint1_linear)" fill-opacity="0.2"/>
<path d="M542.782 199.784L542.825 199.783L542.868 199.78C547.167 199.453 551.523 199.113 555.927 198.77C617.541 193.965 688.739 188.413 748.785 206.82C780.903 216.666 809.795 233.362 832.295 260.702C854.803 288.052 870.976 326.128 877.505 378.825C877.671 380.167 876.834 381.77 874.587 383.682C872.378 385.563 869.061 387.518 864.934 389.53C856.753 393.518 845.722 397.571 834.69 401.625L834.436 401.718C823.37 405.785 812.315 409.854 804.395 413.812C800.446 415.785 797.165 417.784 795.045 419.808C792.935 421.823 791.71 424.146 792.695 426.574C803.263 452.609 808.515 473.806 809.334 490.837C810.154 507.863 806.541 520.647 799.476 529.957C785.368 548.544 756.953 553.893 719.958 550.447C683.07 547.012 638.208 534.877 591.952 519.169C545.713 503.467 498.164 484.225 455.917 466.617C455.92 466.619 455.918 466.618 455.911 466.613C455.878 466.591 455.727 466.493 455.438 466.222C455.123 465.927 454.726 465.509 454.249 464.963C453.297 463.874 452.081 462.345 450.633 460.437C447.741 456.624 443.974 451.364 439.632 445.228C437.928 442.82 436.136 440.278 434.274 437.638C426.66 426.837 417.887 414.394 409.237 402.748C404.002 395.699 398.165 391.747 391.9 390.255C385.645 388.766 379.161 389.777 372.733 392.303C359.946 397.327 346.946 408.521 335.48 419.132C333.426 421.033 331.422 422.914 329.475 424.743C325.947 428.055 322.603 431.195 319.472 433.969C314.596 438.291 310.392 441.582 307.004 443.186C305.314 443.987 303.973 444.295 302.935 444.213C301.974 444.137 301.122 443.715 300.367 442.696C299.578 441.63 298.915 439.924 298.489 437.367C298.066 434.825 297.892 431.533 298.007 427.371C298.203 420.236 298.332 413.139 298.46 406.1C298.853 384.405 299.237 363.259 301.563 343.235C304.641 316.736 311.11 292.354 325.411 271.497C353.947 229.88 414.061 201.779 542.782 199.784Z" stroke="#BE8AFF" stroke-width="2.5"/>
<path d="M549.815 188.898L549.841 188.898L549.866 188.896C560.998 188.05 572.055 187.066 582.994 186.093C605.738 184.069 627.974 182.091 649.316 181.488C680.904 180.596 710.412 182.725 736.492 192.155C788.55 210.978 827.29 259.032 841.212 371.395C841.694 375.285 840.091 379.915 837.378 385.003C834.979 389.502 831.769 394.258 828.531 399.055C828.119 399.665 827.707 400.276 827.296 400.887C823.667 406.28 820.129 411.69 817.892 416.717C815.661 421.728 814.654 426.507 816.302 430.567C827.571 458.329 835.693 480.691 840.93 498.425C846.171 516.172 848.508 529.235 848.246 538.417C847.984 547.616 845.13 552.685 840.283 554.849C835.333 557.058 827.979 556.414 818.26 553.358C800.03 547.625 774.328 533.695 742.768 516.59C740.781 515.513 738.77 514.423 736.736 513.322C702.454 494.759 661.769 473.026 616.77 454.271C616.275 454.065 614.884 453.352 612.655 452.184C611.613 451.638 610.404 451.001 609.035 450.28C607.495 449.469 605.753 448.552 603.821 447.539C596.538 443.718 586.631 438.573 575.068 432.832C551.947 421.353 522.19 407.481 493.542 397.043C477.086 391.048 455.818 394.316 433.375 401.415C412.998 407.861 391.484 417.523 371.468 426.512C369.41 427.437 367.367 428.354 365.343 429.26C354.48 434.123 344.156 438.659 334.791 442.231C325.417 445.805 317.05 448.394 310.093 449.385C303.117 450.379 297.726 449.744 294.13 447.067C290.548 444.402 288.534 439.549 288.753 431.615C288.962 424.035 289.098 416.491 289.234 409.006C289.653 385.915 290.062 363.379 292.54 342.045C295.82 313.809 302.718 287.769 318.007 265.472C348.544 220.936 412.79 191.023 549.815 188.898Z" stroke="#BE8AFF" stroke-width="1.5"/>
<path d="M322.674 -469.885C395.515 -518.722 498.473 -502.401 552.638 -433.429L808.703 -107.366C862.868 -38.3949 847.728 57.1079 774.888 105.946C702.047 154.783 599.089 138.462 544.924 69.4904L288.858 -256.573C234.694 -325.544 249.833 -421.047 322.674 -469.885Z" fill="url(#paint2_linear)" fill-opacity="0.2"/>
<path d="M723.449 117.188L723.407 117.205L723.367 117.225C720.106 118.809 716.921 120.379 713.802 121.916C702.165 127.652 691.436 132.941 681.035 136.893C667.877 141.893 655.378 144.698 642.467 143.53C616.657 141.195 588.647 122.921 550.338 72.797C544.674 65.3865 537.891 58.7549 530.638 52.7132C504.486 30.9279 490.567 8.35167 485.943 -13.1632C481.32 -34.6682 485.96 -55.2128 497.114 -73.0101C519.448 -108.646 567.951 -133.305 620.447 -132.172C626.16 -132.049 631.99 -132.069 637.726 -132.472C696.333 -136.594 725.647 -123.634 743.059 -105.195C751.805 -95.934 757.617 -85.2208 762.609 -74.3828C764.181 -70.9683 765.678 -67.5272 767.162 -64.1147C770.361 -56.7593 773.502 -49.5371 777.222 -43.0014C779.274 -39.3966 781.346 -35.8272 783.401 -32.2892C789.724 -21.3994 795.875 -10.8062 800.721 -0.389923C807.136 13.3985 811.184 26.7185 810.304 39.7595C808.555 65.6567 787.262 91.1964 723.449 117.188Z" stroke="#80DB7F" stroke-width="2.5"/>
<path d="M723.248 124.187L723.223 124.198L723.199 124.21C719.739 125.891 716.356 127.558 713.041 129.192C700.654 135.298 689.202 140.943 678.103 145.16C664.053 150.5 650.65 153.517 636.78 152.262C609.047 149.753 579.112 130.128 538.337 76.7762C532.342 68.9319 525.156 61.9046 517.46 55.4941C489.562 32.2549 474.671 8.13487 469.72 -14.8994C464.77 -37.9277 469.741 -59.9308 481.681 -78.9815C505.575 -117.107 557.412 -143.431 613.459 -142.222C619.528 -142.091 625.71 -142.112 631.787 -142.539C694.263 -146.933 725.66 -133.122 744.345 -113.336C753.711 -103.417 759.924 -91.9557 765.243 -80.406C766.928 -76.7489 768.526 -73.0744 770.108 -69.4371C773.505 -61.625 776.828 -53.9842 780.772 -47.0546C782.95 -43.2291 785.151 -39.4376 787.335 -35.6768C794.066 -24.0839 800.628 -12.7826 805.796 -1.67531C812.637 13.028 816.986 27.2962 816.04 41.3023C814.157 69.2036 791.196 96.5117 723.248 124.187Z" stroke="#80DB7F" stroke-width="1.5"/>
<path d="M-476.65 168.565C-496.247 87.4045 -445.843 7.94538 -364.069 -8.91181L91.312 -102.786C173.086 -119.644 255.263 -67.5154 274.859 13.6452C294.456 94.8058 244.052 174.265 162.279 191.122L-293.103 284.997C-374.876 301.854 -457.053 249.726 -476.65 168.565Z" fill="url(#paint3_linear)" fill-opacity="0.2"/>
<path d="M-78.4599 123.596L-78.4675 123.572L-78.4769 123.55C-92.9539 87.9636 -102.718 59.6022 -91.768 31.6136C-80.8144 3.61516 -49.0397 -24.2178 20.3151 -58.4184C30.5077 -63.4446 39.8907 -69.7978 48.6085 -76.7567C80.2167 -101.988 111.087 -113.842 139.299 -115.707C167.508 -117.572 193.129 -109.455 214.257 -94.6282C256.537 -64.9591 280.807 -8.42623 271.614 48.5586C270.619 54.7271 269.79 61.0307 269.461 67.2819C267.767 99.4313 260.749 123.228 250.395 141.072C240.045 158.909 226.341 170.835 211.206 179.223C196.059 187.617 179.465 192.475 163.326 196.15C156.984 197.594 150.689 198.859 144.582 200.087C135.209 201.971 126.276 203.767 118.287 205.985C109.853 208.326 101.481 210.905 93.2098 213.453C91.925 213.849 90.6426 214.244 89.3627 214.637C79.8381 217.564 70.4532 220.395 61.2338 222.727C42.7875 227.395 25.0761 230.048 8.35225 227.51C-24.9761 222.453 -54.8065 196.685 -78.4599 123.596Z" stroke="#FF7394" stroke-width="1.5"/>
<path d="M-91.0448 125.666L-91.0576 125.627L-91.0731 125.588C-106.471 87.7394 -115.861 56.7964 -103.347 26.2804C-90.8221 -4.26402 -56.2021 -34.7187 17.5699 -71.0975C28.4549 -76.4652 38.4683 -83.2464 47.7635 -90.6662C81.3349 -117.464 114.088 -130.029 143.986 -132.006C173.879 -133.982 201.033 -125.382 223.434 -109.661C268.276 -78.1944 294.048 -18.2014 284.289 42.2919C283.229 48.8627 282.344 55.586 281.993 62.258C278.396 130.518 251.483 164.831 218.629 183.782C202.148 193.289 184.098 198.973 166.572 203.093C157.809 205.154 149.193 206.82 140.972 208.381C140.24 208.52 139.512 208.658 138.786 208.796C131.372 210.201 124.295 211.543 117.79 213.032C107.11 215.478 96.5979 218.37 86.3034 221.246C85.2642 221.536 84.2274 221.826 83.1928 222.116C73.9684 224.696 64.9265 227.226 56.0607 229.384C36.3295 234.185 17.6295 237.099 0.0734656 234.628C-34.8148 229.717 -65.8896 203.396 -91.0448 125.666Z" stroke="#FF7394" stroke-width="2.5"/>
</g>
<defs>
<linearGradient id="paint0_linear" x1="325.072" y1="194.103" x2="325.072" y2="-4.01562" gradientUnits="userSpaceOnUse">
<stop stop-color="#292C40"/>
<stop offset="1" stop-color="#3B3F5A"/>
</linearGradient>
<linearGradient id="paint1_linear" x1="563.058" y1="219.951" x2="435.437" y2="488.145" gradientUnits="userSpaceOnUse">
<stop stop-color="#F8FBFF" stop-opacity="0.49"/>
<stop offset="1" stop-color="#F8FBFF" stop-opacity="0"/>
</linearGradient>
<linearGradient id="paint2_linear" x1="603.048" y1="128.01" x2="608.191" y2="-79.1198" gradientUnits="userSpaceOnUse">
<stop stop-color="#F8FBFF" stop-opacity="0.49"/>
<stop offset="1" stop-color="#F8FBFF" stop-opacity="0"/>
</linearGradient>
<linearGradient id="paint3_linear" x1="310.373" y1="9.45899" x2="-23.2408" y2="117.802" gradientUnits="userSpaceOnUse">
<stop stop-color="#F8FBFF" stop-opacity="0.49"/>
<stop offset="1" stop-color="#F8FBFF" stop-opacity="0"/>
</linearGradient>
</defs>
</svg>
