<?xml version="1.0" standalone="no"?>
<!DOCTYPE svg PUBLIC "-//W3C//DTD SVG 20010904//EN"
 "http://www.w3.org/TR/2001/REC-SVG-20010904/DTD/svg10.dtd">
<svg version="1.0" xmlns="http://www.w3.org/2000/svg"
 width="433.000000pt" height="433.000000pt" viewBox="0 0 433.000000 433.000000"
 preserveAspectRatio="xMidYMid meet">
<metadata>
Created by potrace 1.11, written by Peter Selinger 2001-2013
</metadata>
<g transform="translate(0.000000,433.000000) scale(0.100000,-0.100000)"
fill="#000000" stroke="none">
<path d="M1600 4097 c-212 -123 -490 -284 -617 -357 l-233 -134 0 -722 0 -722
408 -235 c752 -434 797 -460 814 -472 15 -10 0 -21 -105 -82 -494 -283 -1103
-636 -1109 -642 -7 -6 1219 -721 1235 -721 3 0 162 90 354 201 191 110 471
271 620 357 l273 157 0 721 0 720 -222 129 c-451 261 -588 340 -801 462 -189
109 -215 127 -200 138 10 6 97 57 193 112 96 56 303 175 460 265 157 91 349
202 428 248 79 45 142 83 140 85 -4 4 -258 151 -673 390 -198 114 -405 234
-461 266 -55 33 -104 59 -110 59 -5 0 -182 -101 -394 -223z"/>
</g>
</svg>
