<svg width="375" height="296" viewBox="0 0 375 296" fill="none" xmlns="http://www.w3.org/2000/svg">
<mask id="mask0" mask-type="alpha" maskUnits="userSpaceOnUse" x="0" y="0" width="375" height="296">
<rect width="375" height="296" fill="#272A3E"/>
<rect width="375" height="296" fill="url(#paint0_linear)"/>
</mask>
<g mask="url(#mask0)">
<path d="M65.6182 449.527C65.6182 341.094 162.456 253.192 281.911 253.192L899.033 253.192C1018.49 253.192 1115.33 341.094 1115.33 449.527C1115.33 557.959 1018.49 645.861 899.033 645.861L281.911 645.861C162.456 645.861 65.6182 557.959 65.6182 449.527Z" fill="url(#paint1_linear)" fill-opacity="0.2"/>
<path d="M403.956 260.116L404 260.116L404.045 260.112C409.911 259.686 415.855 259.243 421.866 258.794C505.841 252.53 602.993 245.283 684.943 269.312C728.801 282.171 768.271 303.985 799.009 339.71C829.755 375.444 851.825 425.168 860.732 493.934C860.984 495.879 859.705 498.086 856.616 500.601C853.562 503.087 849.001 505.655 843.364 508.284C832.191 513.493 817.136 518.784 802.109 524.066L801.745 524.194C786.65 529.499 771.606 534.796 760.837 539.944C755.463 542.512 751.037 545.096 748.196 547.692C745.359 550.283 743.836 553.155 745.086 556.102C759.504 590.073 766.679 617.758 767.799 640.022C768.919 662.283 763.983 679.046 754.279 691.275C734.898 715.699 695.931 722.652 645.472 718.156C595.126 713.671 533.925 697.834 470.854 677.348C407.802 656.869 342.967 631.773 285.371 608.812C285.374 608.814 285.354 608.806 285.309 608.779C285.294 608.77 285.277 608.76 285.259 608.749C285.223 608.726 285.181 608.698 285.132 608.663C284.983 608.556 284.796 608.405 284.571 608.203C284.119 607.798 283.561 607.232 282.896 606.503C281.57 605.048 279.88 603.013 277.876 600.482C273.87 595.424 268.656 588.453 262.654 580.339C260.427 577.327 258.092 574.16 255.672 570.876C245.057 556.474 232.794 539.837 220.747 524.362C213.735 515.355 205.932 510.37 197.584 508.533C189.247 506.699 180.571 508.049 171.919 511.361C154.688 517.957 137.105 532.514 121.526 546.37C118.755 548.835 116.049 551.276 113.416 553.652C108.607 557.99 104.042 562.107 99.7719 565.745C93.146 571.389 87.3877 575.735 82.7138 577.884C80.3811 578.956 78.4671 579.41 76.9337 579.311C75.4797 579.216 74.2089 578.615 73.1196 577.231C71.9945 575.801 71.0782 573.546 70.4938 570.226C69.912 566.921 69.6734 562.649 69.8285 557.261C70.0961 547.966 70.2715 538.717 70.4455 529.542C70.9822 501.248 71.5057 473.649 74.679 447.519C78.879 412.935 87.7091 381.076 107.257 353.807C146.281 299.37 228.429 262.719 403.956 260.116Z" stroke="#BE8AFF" stroke-width="2.5"/>
<path d="M413.549 246.081L413.576 246.08L413.602 246.078C428.77 244.976 443.839 243.693 458.75 242.424C489.762 239.785 520.09 237.205 549.193 236.418C592.271 235.254 632.54 238.029 668.145 250.343C739.253 274.935 792.095 337.71 811.078 484.263C811.744 489.407 809.529 495.497 805.826 502.138C802.548 508.016 798.165 514.228 793.752 520.482C793.19 521.278 792.628 522.074 792.068 522.871C787.12 529.904 782.309 536.944 779.268 543.478C776.234 549.998 774.894 556.157 777.103 561.364C792.468 597.568 803.543 626.735 810.686 649.87C817.833 673.017 821.027 690.077 820.669 702.087C820.31 714.115 816.406 720.839 809.665 723.717C802.816 726.641 792.699 725.772 779.442 721.784C754.562 714.3 719.499 696.123 676.493 673.829C673.777 672.421 671.03 670.997 668.252 669.558C621.516 645.353 566.062 617.02 504.73 592.57C504.039 592.294 502.119 591.352 499.074 589.826C497.659 589.117 496.018 588.291 494.162 587.355C492.041 586.287 489.639 585.077 486.975 583.741C477.002 578.737 463.437 572 447.61 564.487C415.961 549.464 375.252 531.327 336.124 517.734C313.987 510.044 285.214 514.288 254.726 523.515C227.086 531.881 197.864 544.399 170.633 556.064C167.796 557.279 164.98 558.485 162.19 559.676C147.396 565.993 133.323 571.89 120.55 576.539C107.77 581.191 96.3378 584.575 86.8177 585.886C77.2797 587.201 69.8273 586.413 64.8307 582.91C59.8497 579.417 57.0945 573.073 57.3902 562.802C57.6746 552.923 57.8611 543.089 58.0462 533.331C58.6173 503.218 59.1749 473.817 62.5547 445.987C67.0284 409.15 76.4396 375.155 97.3127 346.037C139.016 287.862 226.719 248.851 413.549 246.081Z" stroke="#BE8AFF" stroke-width="1.5"/>
<path d="M103.898 -612.713C203.2 -676.396 344.385 -654.11 419.243 -562.936L764.652 -142.243C839.51 -51.069 819.695 74.4667 720.392 138.149C621.09 201.832 479.905 179.546 405.047 88.3719L59.6377 -332.321C-15.2204 -423.495 4.59545 -549.031 103.898 -612.713Z" fill="url(#paint2_linear)" fill-opacity="0.2"/>
<path d="M650.453 153.166L650.41 153.183L650.368 153.203C645.929 155.266 641.592 157.31 637.343 159.314C621.475 166.795 606.822 173.703 592.62 178.865C574.648 185.397 557.531 189.079 539.826 187.547C504.426 184.483 466.135 160.516 413.9 95.1442C406.203 85.512 396.981 76.8867 387.111 69.0226C351.4 40.5697 332.364 11.058 326.037 -17.0972C319.712 -45.2405 326.063 -72.1238 341.316 -95.4022C371.849 -142 438.129 -174.218 509.844 -172.738C517.625 -172.578 525.556 -172.604 533.355 -173.128C613.34 -178.509 653.469 -161.594 677.333 -137.423C689.303 -125.298 697.249 -111.282 704.06 -97.1375C706.213 -92.6677 708.257 -88.1711 710.282 -83.7167C714.639 -74.1361 718.906 -64.7508 723.967 -56.2468C726.759 -51.5538 729.582 -46.9042 732.381 -42.2936C741.003 -28.0896 749.402 -14.2546 756.017 -0.654738C764.775 17.3493 770.323 34.7847 769.117 51.878C766.717 85.8707 737.486 119.259 650.453 153.166Z" stroke="#80DB7F" stroke-width="2.5"/>
<path d="M650.102 162.151L650.076 162.161L650.051 162.173C645.338 164.364 640.729 166.536 636.21 168.667C619.322 176.629 603.694 183.997 588.55 189.501C569.375 196.471 551.057 200.419 532.086 198.778C494.149 195.495 453.277 169.821 397.683 100.245C389.525 90.0353 379.744 80.8852 369.263 72.5346C331.195 42.2041 310.858 10.7086 304.095 -19.3876C297.333 -49.4767 304.125 -78.2243 320.43 -103.108C353.057 -152.902 423.819 -187.265 500.316 -185.686C508.585 -185.515 517.003 -185.543 525.274 -186.1C610.499 -191.833 653.401 -173.814 678.95 -147.936C691.747 -134.974 700.231 -120.001 707.487 -104.933C709.788 -100.154 711.969 -95.3569 714.127 -90.6112C718.755 -80.4309 723.276 -70.4868 728.647 -61.4619C731.613 -56.4779 734.613 -51.5366 737.589 -46.6341C746.767 -31.5151 755.721 -16.7657 762.771 -2.27197C772.104 16.9153 778.051 35.5605 776.758 53.8769C774.18 90.3935 742.757 126.054 650.102 162.151Z" stroke="#80DB7F" stroke-width="1.5"/>
<path d="M-985.806 219.802C-1012.52 113.972 -947.367 11.0619 -840.278 -10.0534L-203.562 -135.598C-96.4736 -156.713 11.9966 -88.0383 38.7126 17.7923C65.4286 123.623 0.273635 226.533 -106.815 247.648L-743.531 373.193C-850.62 394.308 -959.09 325.633 -985.806 219.802Z" fill="url(#paint3_linear)" fill-opacity="0.2"/>
<path d="M-443.222 161.23L-443.229 161.207L-443.239 161.185C-462.97 114.794 -476.325 77.7301 -461.36 41.1412C-446.391 4.54442 -402.992 -31.7837 -308.436 -76.3831C-294.562 -82.9269 -281.787 -91.2002 -269.912 -100.267C-226.788 -133.192 -184.652 -148.676 -146.122 -151.113C-107.593 -153.549 -72.6005 -142.944 -43.7488 -123.578C13.9774 -84.832 47.0943 -11.0247 34.5487 63.3565C33.1927 71.3964 32.0642 79.6075 31.6157 87.748C29.3047 129.695 19.7314 160.76 5.59247 184.067C-8.54145 207.365 -27.2593 222.946 -47.9298 233.903C-68.6128 244.867 -91.2648 251.208 -113.276 256.002C-121.94 257.889 -130.527 259.54 -138.855 261.141C-151.622 263.596 -163.779 265.933 -174.665 268.823C-186.158 271.875 -197.567 275.237 -208.843 278.559C-210.595 279.075 -212.343 279.591 -214.089 280.104C-227.073 283.92 -239.874 287.613 -252.45 290.656C-277.61 296.745 -301.8 300.216 -324.657 296.898C-370.252 290.28 -410.967 256.56 -443.222 161.23Z" stroke="#FF7394" stroke-width="1.5"/>
<path d="M-460.546 163.973L-460.559 163.934L-460.575 163.897C-481.564 114.55 -494.433 74.0698 -477.308 34.1262C-460.173 -5.84266 -412.848 -45.6112 -312.261 -93.0552C-297.458 -100.037 -283.833 -108.861 -271.179 -118.524C-225.356 -153.509 -180.617 -169.938 -139.743 -172.522C-98.8722 -175.107 -61.7476 -163.858 -31.1278 -143.306C30.1497 -102.176 65.3329 -23.7964 52.0071 55.2098C50.5631 63.7716 49.3599 72.5243 48.8815 81.2062C43.9719 170.319 7.22561 215.189 -37.7063 239.979C-60.2294 252.406 -84.8852 259.83 -108.8 265.208C-120.757 267.896 -132.512 270.071 -143.72 272.107C-144.718 272.288 -145.711 272.468 -146.7 272.647C-156.81 274.48 -166.448 276.228 -175.306 278.168C-189.854 281.355 -204.175 285.123 -218.209 288.873C-219.626 289.251 -221.04 289.63 -222.45 290.007C-235.024 293.372 -247.359 296.673 -259.454 299.488C-286.368 305.753 -311.934 309.57 -335.961 306.335C-383.795 299.895 -426.239 265.369 -460.546 163.973Z" stroke="#FF7394" stroke-width="2.5"/>
</g>
<defs>
<linearGradient id="paint0_linear" x1="158.727" y1="253.104" x2="158.727" y2="-5.23623" gradientUnits="userSpaceOnUse">
<stop stop-color="#292C40"/>
<stop offset="1" stop-color="#3B3F5A"/>
</linearGradient>
<linearGradient id="paint1_linear" x1="431.609" y1="286.809" x2="269.895" y2="642.109" gradientUnits="userSpaceOnUse">
<stop stop-color="#F8FBFF" stop-opacity="0.49"/>
<stop offset="1" stop-color="#F8FBFF" stop-opacity="0"/>
</linearGradient>
<linearGradient id="paint2_linear" x1="486.127" y1="166.921" x2="492.541" y2="-103.184" gradientUnits="userSpaceOnUse">
<stop stop-color="#F8FBFF" stop-opacity="0.49"/>
<stop offset="1" stop-color="#F8FBFF" stop-opacity="0"/>
</linearGradient>
<linearGradient id="paint3_linear" x1="87.1272" y1="12.3336" x2="-363.68" y2="165.395" gradientUnits="userSpaceOnUse">
<stop stop-color="#F8FBFF" stop-opacity="0.49"/>
<stop offset="1" stop-color="#F8FBFF" stop-opacity="0"/>
</linearGradient>
</defs>
</svg>
