<svg width="1440" height="1397" viewBox="0 0 1440 1397" fill="none" xmlns="http://www.w3.org/2000/svg">
<path d="M550 831.5C550 639.581 705.581 484 897.5 484H1844.5C2036.42 484 2192 639.581 2192 831.5C2192 1023.42 2036.42 1179 1844.5 1179H897.5C705.581 1179 550 1023.42 550 831.5Z" fill="url(#paint0_linear)" fill-opacity="0.2"/>
<path d="M-977.332 402.707C-1019.12 215.394 -901.152 29.6681 -713.838 -12.1223L210.438 -218.332C397.752 -260.122 583.477 -142.152 625.268 45.1617C667.058 232.475 549.088 418.201 361.774 459.991L-562.502 666.201C-749.816 707.991 -935.541 590.021 -977.332 402.707Z" fill="url(#paint1_linear)" fill-opacity="0.2"/>
<path d="M504.255 -976.913C659.588 -1089.63 876.884 -1055.08 989.598 -899.745L1545.77 -133.273C1658.49 22.06 1623.94 239.355 1468.6 352.07C1313.27 464.784 1095.98 430.235 983.262 274.902L427.087 -491.57C314.373 -646.903 348.922 -864.198 504.255 -976.913Z" fill="url(#paint2_linear)" fill-opacity="0.2"/>
<mask id="path-4-inside-1" fill="white">
<path d="M1477.19 -11.8479C1548.31 123.386 1633.71 241.632 1361.11 361.798C1229.99 430.756 1152.18 490.001 988.676 258.466C976.742 241.567 962.422 226.406 947.056 212.553C722.681 10.2727 914.957 -224.332 1140.59 -219.063C1152.72 -218.779 1165.06 -218.826 1177.16 -219.748C1428.18 -238.855 1430.99 -99.6821 1477.19 -11.8479Z"/>
</mask>
<path d="M1477.19 -11.8479L1474.98 -10.6842L1477.19 -11.8479ZM1361.11 361.798L1360.1 359.51L1360.02 359.545L1359.94 359.585L1361.11 361.798ZM1140.59 -219.063L1140.53 -216.563L1140.59 -219.063ZM1177.16 -219.748L1176.97 -222.241L1177.16 -219.748ZM988.676 258.466L990.718 257.024L988.676 258.466ZM947.056 212.553L945.382 214.41L947.056 212.553ZM1474.98 -10.6842C1492.81 23.2337 1511.4 55.8144 1525.09 87.6752C1538.78 119.506 1547.43 150.296 1545.55 180.47C1541.81 240.48 1496.19 299.517 1360.1 359.51L1362.12 364.085C1498.62 303.913 1546.61 243.744 1550.54 180.781C1552.49 149.469 1543.5 117.831 1529.69 85.7004C1515.89 53.6003 1497.12 20.6875 1479.4 -13.0116L1474.98 -10.6842ZM1359.94 359.585C1327.06 376.879 1297.79 393.417 1269.64 404.992C1241.55 416.544 1214.86 423.029 1187.28 420.329C1132.18 414.933 1072.42 372.716 990.718 257.024L986.634 259.908C1068.44 375.752 1129.34 419.679 1186.79 425.305C1215.5 428.116 1243.06 421.331 1271.54 409.616C1299.98 397.923 1329.6 381.196 1362.27 364.01L1359.94 359.585ZM948.73 210.696C892.946 160.406 863.235 108.27 853.36 58.5481C843.487 8.83894 853.396 -38.6715 877.233 -79.833C924.953 -162.237 1028.52 -219.179 1140.53 -216.563L1140.64 -221.562C1027.02 -224.215 921.638 -166.49 872.906 -82.3386C848.517 -40.2226 838.325 8.51634 848.456 59.5222C858.583 110.516 888.978 163.56 945.382 214.41L948.73 210.696ZM1177.35 -217.255C1302.38 -226.772 1364.94 -196.85 1402.1 -154.257C1420.77 -132.864 1433.17 -108.118 1443.82 -83.0953C1454.41 -58.2098 1463.37 -32.757 1474.98 -10.6842L1479.4 -13.0116C1467.91 -34.856 1459.19 -59.7376 1448.42 -85.0533C1437.7 -110.232 1425.06 -135.554 1405.87 -157.545C1367.32 -201.72 1302.97 -231.831 1176.97 -222.241L1177.35 -217.255ZM1140.53 -216.563C1152.71 -216.279 1165.13 -216.325 1177.35 -217.255L1176.97 -222.241C1164.98 -221.328 1152.74 -221.279 1140.64 -221.562L1140.53 -216.563ZM990.718 257.024C978.649 239.933 964.192 224.636 948.73 210.696L945.382 214.41C960.652 228.176 974.835 243.2 986.634 259.908L990.718 257.024Z" fill="#80DB7F" mask="url(#path-4-inside-1)"/>
<mask id="path-6-inside-2" fill="white">
<path d="M1483.79 -20.6513C1559.47 123.245 1650.33 249.065 1360.27 376.928C1220.76 450.304 1137.96 513.344 963.985 266.978C951.286 248.996 936.049 232.864 919.699 218.124C680.951 2.88624 885.544 -246.746 1125.62 -241.139C1138.54 -240.838 1151.66 -240.888 1164.55 -241.868C1431.64 -262.199 1434.63 -114.112 1483.79 -20.6513Z"/>
</mask>
<path d="M1483.79 -20.6513L1482.46 -19.9531L1483.79 -20.6513ZM1360.27 376.928L1359.67 375.556L1359.62 375.577L1359.57 375.601L1360.27 376.928ZM1125.62 -241.139L1125.59 -239.64L1125.62 -241.139ZM1164.55 -241.868L1164.43 -243.364L1164.55 -241.868ZM963.985 266.978L965.21 266.113L963.985 266.978ZM919.699 218.124L918.694 219.238L919.699 218.124ZM1482.46 -19.9531C1501.42 16.0867 1521.23 50.8314 1535.83 84.7885C1550.42 118.728 1559.71 151.687 1557.69 184.058C1553.66 248.597 1504.58 311.678 1359.67 375.556L1360.88 378.301C1506.03 314.315 1556.54 250.555 1560.68 184.244C1562.74 151.19 1553.25 117.722 1538.58 83.6037C1523.92 49.5029 1504 14.559 1485.12 -21.3495L1482.46 -19.9531ZM1359.57 375.601C1324.63 393.977 1293.4 411.618 1263.39 423.962C1233.41 436.292 1204.8 443.262 1175.2 440.363C1116.02 434.569 1052.17 389.25 965.21 266.113L962.759 267.843C1049.78 391.072 1114.32 437.416 1174.91 443.349C1205.19 446.314 1234.31 439.164 1264.53 426.736C1294.72 414.322 1326.15 396.567 1360.97 378.256L1359.57 375.601ZM920.703 217.01C861.202 163.368 829.429 107.681 818.863 54.4799C808.298 1.28575 818.908 -49.553 844.399 -93.5726C895.41 -181.66 1006.04 -242.432 1125.59 -239.64L1125.66 -242.639C1005.13 -245.453 893.422 -184.212 841.803 -95.076C815.98 -50.4836 805.201 1.09219 815.92 55.0644C826.638 109.029 858.821 165.261 918.694 219.238L920.703 217.01ZM1164.66 -240.373C1297.92 -250.516 1364.9 -218.634 1404.77 -172.945C1424.75 -150.043 1438 -123.578 1449.35 -96.9168C1460.66 -70.3374 1470.14 -43.3867 1482.46 -19.9531L1485.12 -21.3495C1472.86 -44.6461 1463.53 -71.2541 1452.11 -98.0915C1440.72 -124.847 1427.32 -151.657 1407.03 -174.918C1366.33 -221.556 1298.27 -253.552 1164.43 -243.364L1164.66 -240.373ZM1125.59 -239.64C1138.53 -239.337 1151.71 -239.387 1164.66 -240.373L1164.43 -243.364C1151.62 -242.389 1138.55 -242.338 1125.66 -242.639L1125.59 -239.64ZM965.21 266.113C952.43 248.016 937.111 231.802 920.703 217.01L918.694 219.238C934.987 233.926 950.142 249.976 962.759 267.843L965.21 266.113Z" fill="#80DB7F" mask="url(#path-6-inside-2)"/>
<mask id="mask0" mask-type="alpha" maskUnits="userSpaceOnUse" x="3" y="-1" width="1440" height="741">
<rect x="3" y="-1" width="1440" height="741" fill="#272A3E"/>
<rect x="3" y="-1" width="1440" height="741" fill="url(#paint3_linear)"/>
</mask>
<g mask="url(#mask0)">
<mask id="path-9-inside-3" fill="white">
<path d="M555.669 1026.89C562.496 758.57 530.911 508.113 1080.45 498.894C1354.82 476.321 1741.15 426.613 1797 914.499C1801.08 950.11 1603.61 991.059 1615.99 1024.06C1796.73 1505.95 1254.41 1282.57 893.999 1120C886.797 1116.75 840.757 1041.04 795.604 974.968C706.528 844.614 551.653 1184.73 555.669 1026.89Z"/>
</mask>
<path d="M1080.45 498.894L1080.49 501.393L1080.57 501.392L1080.65 501.385L1080.45 498.894ZM893.999 1120L892.971 1122.28L893.999 1120ZM1797 914.499L1794.52 914.784L1797 914.499ZM1615.99 1024.06L1618.33 1023.18L1615.99 1024.06ZM558.168 1026.96C559.878 959.748 559.182 893.981 565.753 832.758C572.319 771.584 586.119 715.263 616.654 667.068C677.606 570.86 805.964 505.999 1080.49 501.393L1080.4 496.394C805.393 501.008 674.776 565.984 612.43 664.392C581.316 713.503 567.387 770.684 560.781 832.225C554.181 893.717 554.873 959.879 553.169 1026.83L558.168 1026.96ZM1080.65 501.385C1218.04 490.082 1382.62 472.107 1519.88 517.647C1588.42 540.384 1650.06 578.941 1698.07 642.073C1746.09 705.224 1780.59 793.136 1794.52 914.784L1799.48 914.215C1785.48 791.92 1750.75 703.087 1702.05 639.046C1653.34 574.986 1590.78 535.902 1521.46 512.901C1383 466.967 1217.23 485.132 1080.24 496.402L1080.65 501.385ZM1613.65 1024.94C1658.8 1145.34 1658.34 1220.61 1628.06 1263.77C1597.86 1306.85 1537.07 1319.17 1458.18 1311.22C1379.48 1303.28 1283.78 1275.27 1185.14 1239.01C1086.52 1202.77 985.12 1158.36 895.027 1117.72L892.971 1122.28C983.084 1162.93 1084.62 1207.4 1183.41 1243.71C1282.17 1280 1378.34 1308.19 1457.68 1316.19C1536.82 1324.17 1600.25 1312.14 1632.16 1266.65C1664 1221.25 1663.54 1143.73 1618.33 1023.18L1613.65 1024.94ZM895.027 1117.72C895.03 1117.72 894.705 1117.53 893.977 1116.8C893.316 1116.13 892.49 1115.19 891.497 1113.97C889.515 1111.53 886.988 1108.1 883.981 1103.82C877.974 1095.27 870.153 1083.47 861.125 1069.68C843.085 1042.11 820.263 1006.62 797.668 973.557L793.539 976.378C816.097 1009.39 838.871 1044.8 856.941 1072.41C865.967 1086.21 873.829 1098.07 879.891 1106.7C882.919 1111.01 885.523 1114.54 887.614 1117.12C888.658 1118.41 889.602 1119.49 890.429 1120.32C891.19 1121.09 892.068 1121.87 892.971 1122.28L895.027 1117.72ZM1794.52 914.784C1794.88 918.001 1793.02 921.792 1788.19 926.239C1783.44 930.611 1776.34 935.142 1767.53 939.79C1749.93 949.076 1726.16 958.511 1702.46 967.935C1678.85 977.323 1655.3 986.706 1638.43 995.828C1630.02 1000.38 1623.06 1004.97 1618.58 1009.6C1614.13 1014.2 1611.59 1019.45 1613.65 1024.94L1618.33 1023.18C1617.29 1020.42 1618.21 1017.17 1622.18 1013.08C1626.11 1009.01 1632.52 1004.71 1640.81 1000.23C1657.36 991.275 1680.6 982.008 1704.3 972.581C1727.91 963.192 1751.97 953.651 1769.86 944.212C1778.8 939.497 1786.35 934.728 1791.58 929.916C1796.72 925.179 1800.13 919.901 1799.48 914.215L1794.52 914.784ZM553.169 1026.83C552.916 1036.78 553.286 1044.85 554.251 1051.26C555.211 1057.63 556.787 1062.55 559.089 1066.01C561.458 1069.58 564.607 1071.61 568.418 1072.03C572.079 1072.42 576.022 1071.28 580.054 1069.27C588.102 1065.26 597.623 1057.18 608.057 1047.26C618.523 1037.31 630.21 1025.2 642.488 1013.01C667.21 988.46 694.465 963.467 720.92 952.595C734.082 947.187 746.838 945.364 758.896 948.658C770.933 951.947 782.646 960.436 793.539 976.378L797.668 973.557C786.292 956.91 773.68 947.514 760.213 943.835C746.767 940.162 732.842 942.291 719.02 947.971C691.509 959.276 663.595 985.004 638.965 1009.46C626.568 1021.77 615.034 1033.73 604.611 1043.64C594.156 1053.58 585.121 1061.16 577.822 1064.8C574.181 1066.61 571.253 1067.3 568.955 1067.06C566.808 1066.82 564.911 1065.74 563.254 1063.25C561.532 1060.65 560.106 1056.56 559.195 1050.52C558.289 1044.5 557.919 1036.74 558.168 1026.96L553.169 1026.83Z" fill="#BE8AFF" mask="url(#path-9-inside-3)"/>
<mask id="path-11-inside-4" fill="white">
<path d="M537.049 1036.7C544.314 751.183 510.705 484.684 1095.44 474.874C1387.39 450.855 1659.07 378.361 1718.5 897.499C1722.84 935.391 1652.12 998.565 1665.29 1033.68C1857.61 1546.44 1621 1263.48 1237.5 1090.5C1228.4 1086.4 1098.06 1007.33 976.555 959.151C836.266 903.526 533.21 1187.56 537.049 1036.7Z"/>
</mask>
<path d="M1095.44 474.874L1095.47 476.374L1095.51 476.373L1095.56 476.369L1095.44 474.874ZM1237.5 1090.5L1238.12 1089.13L1237.5 1090.5ZM1718.5 897.499L1717.01 897.67L1718.5 897.499ZM1665.29 1033.68L1666.69 1033.15L1665.29 1033.68ZM538.548 1036.73C540.367 965.279 539.627 895.207 546.625 830C553.621 764.822 568.335 704.695 600.96 653.199C666.14 550.319 803.244 481.276 1095.47 476.374L1095.42 473.374C802.902 478.281 664.442 547.393 598.426 651.594C565.453 703.638 550.662 764.282 543.643 829.68C536.627 895.049 537.364 965.357 535.549 1036.66L538.548 1036.73ZM1095.56 476.369C1168.65 470.356 1240.24 461.332 1307.65 459.272C1375.02 457.212 1437.98 462.124 1493.62 483.899C1604.7 527.366 1687.32 638.325 1717.01 897.67L1719.99 897.329C1690.25 637.535 1607.32 525.172 1494.71 481.106C1438.52 459.114 1375.09 454.208 1307.56 456.273C1240.06 458.337 1168.21 467.382 1095.32 473.379L1095.56 476.369ZM1663.88 1034.21C1687.92 1098.28 1705.24 1149.9 1716.4 1190.83C1727.58 1231.79 1732.57 1261.95 1732.01 1283.16C1731.45 1304.4 1725.36 1316.2 1714.91 1321.25C1704.28 1326.39 1688.53 1324.88 1667.81 1317.82C1626.47 1303.75 1567.12 1268.3 1493.93 1225.41C1420.82 1182.57 1334.07 1132.41 1238.12 1089.13L1236.88 1091.87C1332.68 1135.08 1419.31 1185.16 1492.42 1228C1565.44 1270.79 1625.13 1306.47 1666.84 1320.66C1687.64 1327.74 1704.42 1329.65 1716.22 1323.95C1728.2 1318.17 1734.44 1304.88 1735.01 1283.24C1735.58 1261.58 1730.5 1231.07 1719.3 1190.04C1708.09 1148.98 1690.74 1097.27 1666.69 1033.15L1663.88 1034.21ZM1238.12 1089.13C1237.06 1088.66 1234.11 1087.02 1229.4 1084.35C1224.72 1081.7 1218.43 1078.09 1210.72 1073.72C1195.31 1064.97 1174.36 1053.19 1149.89 1040.03C1100.96 1013.72 1037.94 981.877 977.108 957.756L976.002 960.545C1036.68 984.603 1099.58 1016.38 1148.47 1042.67C1172.91 1055.82 1193.84 1067.59 1209.24 1076.32C1216.92 1080.69 1223.25 1084.31 1227.92 1086.96C1232.55 1089.59 1235.66 1091.32 1236.88 1091.87L1238.12 1089.13ZM1717.01 897.67C1718.04 906.69 1714.61 917.41 1708.82 929.162C1703.04 940.878 1695.07 953.345 1687.31 965.839C1679.57 978.286 1672.03 990.76 1667.27 1002.35C1662.52 1013.89 1660.38 1024.88 1663.88 1034.21L1666.69 1033.15C1663.6 1024.92 1665.37 1014.84 1670.04 1003.49C1674.7 992.167 1682.1 979.896 1689.85 967.423C1697.58 954.997 1705.65 942.372 1711.51 930.488C1717.35 918.641 1721.13 907.255 1719.99 897.329L1717.01 897.67ZM535.549 1036.66C535.065 1055.71 539.407 1068.34 548.121 1075.55C556.811 1082.74 569.421 1084.18 584.598 1081.89C599.813 1079.59 617.94 1073.49 638.008 1065.18C658.091 1056.86 680.207 1046.29 703.411 1034.99C749.859 1012.37 800.673 986.846 848.643 970.435C896.673 954.003 941.464 946.851 976.002 960.545L977.108 957.756C941.501 943.638 895.802 951.13 847.672 967.596C799.483 984.083 748.47 1009.71 702.097 1032.29C678.891 1043.59 656.849 1054.13 636.86 1062.41C616.857 1070.69 598.999 1076.68 584.15 1078.92C569.264 1081.17 557.731 1079.61 550.034 1073.24C542.362 1066.89 538.073 1055.4 538.548 1036.73L535.549 1036.66Z" fill="#BE8AFF" mask="url(#path-11-inside-4)"/>
</g>
<mask id="path-13-inside-5" fill="white">
<path d="M293 483.624C127 533.5 -27.6157 630.102 -128.601 292.385C-190.277 128.309 -213.011 28.243 82.8685 -129.665C104.464 -141.191 124.37 -155.773 142.894 -171.776C413.379 -405.45 660.534 -145.204 621.163 118.916C619.045 133.126 617.286 147.613 616.587 161.962C602.101 459.475 405.457 449.835 293 483.624Z"/>
</mask>
<path d="M293 483.624L292.568 482.187L293 483.624ZM-128.601 292.385L-127.164 291.956L-127.179 291.906L-127.197 291.858L-128.601 292.385ZM621.163 118.916L619.679 118.695L621.163 118.916ZM616.587 161.962L618.085 162.035L616.587 161.962ZM82.8685 -129.665L83.5747 -128.342L82.8685 -129.665ZM142.894 -171.776L141.913 -172.911L142.894 -171.776ZM292.568 482.187C271.792 488.43 251.193 495.403 230.893 502.155C210.581 508.91 190.564 515.444 170.898 520.829C131.552 531.603 93.7562 537.734 58.062 531.872C-13.0827 520.187 -76.7177 460.659 -127.164 291.956L-130.038 292.815C-79.4993 461.828 -15.3338 522.858 57.5757 534.832C93.9086 540.799 132.203 534.535 171.691 523.722C191.442 518.314 211.527 511.757 231.839 505.001C252.163 498.242 272.708 491.287 293.431 485.06L292.568 482.187ZM-127.197 291.858C-158.064 209.741 -178.916 144.227 -155.539 79.5571C-132.152 14.8605 -64.3282 -49.4074 83.5747 -128.342L82.1622 -130.989C-65.814 -52.0149 -134.563 12.7045 -158.36 78.5372C-182.167 144.397 -160.814 210.953 -130.005 292.913L-127.197 291.858ZM143.874 -170.641C211.306 -228.895 277.173 -256.274 337.378 -260.582C397.575 -264.889 452.242 -246.142 497.317 -211.908C587.513 -143.407 639.293 -12.8836 619.679 118.695L622.646 119.137C642.404 -13.4047 590.292 -145.064 499.132 -214.297C453.529 -248.931 398.152 -267.938 337.164 -263.575C276.183 -259.211 209.724 -231.493 141.913 -172.911L143.874 -170.641ZM615.089 161.889C607.865 310.257 555.272 381.711 490.761 420.403C458.435 439.791 423.028 451.008 388.607 459.491C354.304 467.945 320.706 473.733 292.568 482.187L293.431 485.06C321.522 476.62 354.677 470.943 389.325 462.404C423.856 453.893 459.601 442.59 492.304 422.976C557.851 383.662 610.823 311.18 618.085 162.035L615.089 161.889ZM619.679 118.695C617.557 132.928 615.791 147.47 615.089 161.889L618.085 162.035C618.781 147.756 620.532 133.323 622.646 119.137L619.679 118.695ZM83.5747 -128.342C105.295 -139.934 125.292 -154.587 143.874 -170.641L141.913 -172.911C123.448 -156.959 103.634 -142.448 82.1622 -130.989L83.5747 -128.342Z" fill="#FF7394" mask="url(#path-13-inside-5)"/>
<mask id="path-15-inside-6" fill="white">
<path d="M292.107 500.988C110.5 546 -49.0458 656.849 -156.5 297.5C-222.126 122.914 -238.325 8.11736 76.5071 -159.906C99.4864 -172.17 120.667 -187.686 140.377 -204.714C428.189 -453.356 691.175 -176.44 649.282 104.599C647.028 119.718 645.157 135.134 644.413 150.402C628.999 466.972 413.383 470.929 292.107 500.988Z"/>
</mask>
<path d="M292.107 500.988L291.506 498.562L292.107 500.988ZM-156.5 297.5L-154.105 296.784L-154.129 296.701L-154.16 296.62L-156.5 297.5ZM649.282 104.599L651.755 104.967L649.282 104.599ZM644.413 150.402L641.916 150.281L644.413 150.402ZM76.5071 -159.906L77.6842 -157.7L76.5071 -159.906ZM140.377 -204.714L138.743 -206.606L140.377 -204.714ZM291.506 498.562C268.737 504.205 246.327 510.877 224.374 517.514C202.401 524.157 180.904 530.759 159.871 536.298C117.781 547.383 77.8613 554.118 40.3727 548.408C-34.1487 537.056 -100.452 476.209 -154.105 296.784L-158.895 298.216C-105.094 478.139 -37.8971 541.543 39.6198 553.351C78.1502 559.22 118.884 552.263 161.144 541.133C182.286 535.566 203.887 528.931 225.821 522.3C247.773 515.663 270.075 509.024 292.708 503.415L291.506 498.562ZM-154.16 296.62C-186.99 209.282 -207.062 137.772 -180.33 67.2218C-153.573 -3.39736 -79.644 -73.7354 77.6842 -157.7L75.33 -162.111C-82.1735 -78.053 -157.562 -6.98125 -185.006 65.4502C-212.476 137.95 -191.636 211.132 -158.84 298.38L-154.16 296.62ZM142.012 -202.822C213.648 -264.709 283.557 -293.74 347.384 -298.307C411.198 -302.873 469.153 -283.003 516.957 -246.697C612.639 -174.029 667.636 -35.4865 646.809 104.23L651.755 104.967C672.821 -36.355 617.271 -176.789 519.981 -250.679C471.298 -287.652 412.16 -307.955 347.027 -303.294C281.906 -298.635 211.012 -269.039 138.743 -206.606L142.012 -202.822ZM641.916 150.281C634.242 307.9 576.809 387.207 506.634 431.016C471.448 452.982 432.922 466.109 395.534 475.623C376.841 480.379 358.461 484.226 340.929 487.829C323.419 491.428 306.726 494.789 291.506 498.562L292.708 503.415C307.807 499.672 324.381 496.335 341.936 492.727C359.469 489.123 377.951 485.256 396.767 480.468C434.398 470.893 473.478 457.609 509.282 435.257C581.088 390.43 639.171 309.474 646.91 150.524L641.916 150.281ZM646.809 104.23C644.55 119.39 642.666 134.896 641.916 150.281L646.91 150.524C647.648 135.371 649.507 120.047 651.755 104.967L646.809 104.23ZM77.6842 -157.7C100.87 -170.074 122.203 -185.709 142.012 -202.822L138.743 -206.606C119.131 -189.662 98.103 -174.265 75.33 -162.111L77.6842 -157.7Z" fill="#FF7394" mask="url(#path-15-inside-6)"/>
<defs>
<linearGradient id="paint0_linear" x1="1122.5" y1="543.5" x2="813.5" y2="1143.5" gradientUnits="userSpaceOnUse">
<stop stop-color="#F8FBFF" stop-opacity="0.49"/>
<stop offset="1" stop-color="#F8FBFF" stop-opacity="0"/>
</linearGradient>
<linearGradient id="paint1_linear" x1="701" y1="35.5001" x2="-20.5" y2="252" gradientUnits="userSpaceOnUse">
<stop stop-color="#F8FBFF" stop-opacity="0.49"/>
<stop offset="1" stop-color="#F8FBFF" stop-opacity="0"/>
</linearGradient>
<linearGradient id="paint2_linear" x1="1102.16" y1="402.994" x2="1115" y2="-74.9999" gradientUnits="userSpaceOnUse">
<stop stop-color="#F8FBFF" stop-opacity="0.49"/>
<stop offset="1" stop-color="#F8FBFF" stop-opacity="0"/>
</linearGradient>
<linearGradient id="paint3_linear" x1="612.511" y1="632.615" x2="612.511" y2="-14.1083" gradientUnits="userSpaceOnUse">
<stop stop-color="#292C40"/>
<stop offset="1" stop-color="#3B3F5A"/>
</linearGradient>
</defs>
</svg>
