<svg width="768" height="1024" viewBox="0 0 768 1024" fill="none" xmlns="http://www.w3.org/2000/svg">
<g clip-path="url(#clip0)">
<path d="M103.215 1228.01C103.215 994.247 292.718 804.744 526.481 804.744H1679.96C1913.72 804.744 2103.22 994.247 2103.22 1228.01C2103.22 1461.77 1913.72 1651.28 1679.96 1651.28H526.481C292.718 1651.28 103.215 1461.77 103.215 1228.01Z" fill="url(#paint0_linear)" fill-opacity="0.2"/>
<path d="M-1717.12 745.727C-1768.02 517.574 -1624.33 291.354 -1396.18 240.452L-270.382 -10.7175C-42.2277 -61.6195 183.992 82.0717 234.894 310.226C285.796 538.38 142.105 764.599 -86.0494 815.501L-1211.85 1066.67C-1440 1117.57 -1666.22 973.881 -1717.12 745.727Z" fill="url(#paint1_linear)" fill-opacity="0.2"/>
<path d="M87.4965 -934.693C276.697 -1071.98 541.369 -1029.9 678.659 -840.7L1356.1 92.8867C1493.39 282.087 1451.3 546.759 1262.1 684.049C1072.9 821.338 808.231 779.256 670.941 590.056L-6.49679 -343.53C-143.786 -532.731 -101.704 -797.403 87.4965 -934.693Z" fill="url(#paint2_linear)" fill-opacity="0.2"/>
<mask id="path-4-inside-1" fill="white">
<path d="M1165 144.115C1251.64 308.834 1355.65 452.861 1023.61 599.227C863.912 683.22 769.136 755.383 569.981 473.366C555.445 452.782 538.003 434.316 519.286 417.443C245.99 171.059 480.19 -114.697 755.011 -108.279C769.796 -107.934 784.819 -107.991 799.566 -109.113C1105.31 -132.387 1108.74 37.1303 1165 144.115Z"/>
</mask>
<path d="M1165 144.115L1162.79 145.279L1165 144.115ZM1023.61 599.227L1022.61 596.939L1022.53 596.974L1022.45 597.014L1023.61 599.227ZM755.011 -108.279L754.953 -105.78L755.011 -108.279ZM799.566 -109.113L799.376 -111.606L799.566 -109.113ZM569.981 473.366L572.023 471.924L569.981 473.366ZM519.286 417.443L517.613 419.299L519.286 417.443ZM1162.79 145.279C1184.51 186.568 1207.16 226.289 1223.86 265.122C1240.54 303.925 1251.11 341.521 1248.81 378.398C1244.23 451.815 1188.42 523.847 1022.61 596.939L1024.62 601.515C1190.84 528.242 1249.04 455.078 1253.8 378.709C1256.18 340.694 1245.26 302.25 1228.45 263.147C1211.65 224.074 1188.82 184.022 1167.22 142.951L1162.79 145.279ZM1022.45 597.014C982.422 618.067 946.726 638.231 912.415 652.343C878.158 666.431 845.548 674.363 811.836 671.062C744.461 664.465 671.547 612.856 572.023 471.924L567.939 474.808C667.57 615.893 741.621 669.211 811.349 676.039C846.188 679.45 879.663 671.219 914.317 656.967C948.915 642.737 984.955 622.384 1024.78 601.44L1022.45 597.014ZM520.96 415.586C452.947 354.27 416.683 290.667 404.627 229.966C392.574 169.277 404.674 111.274 433.768 61.034C492.003 -39.5267 618.353 -108.97 754.953 -105.78L755.069 -110.778C616.847 -114.006 488.688 -43.78 429.441 58.5284C399.795 109.723 387.412 168.955 399.723 230.94C412.031 292.913 448.978 357.424 517.613 419.299L520.96 415.586ZM799.755 -106.621C952.145 -118.22 1028.54 -81.7542 1073.96 -29.7023C1096.75 -3.57916 1111.88 26.625 1124.86 57.1201C1137.78 87.4783 1148.66 118.418 1162.79 145.279L1167.22 142.951C1153.21 116.319 1142.56 85.9505 1129.46 55.1622C1116.42 24.5107 1101.04 -6.26951 1077.72 -32.9896C1030.92 -86.624 952.732 -123.28 799.376 -111.606L799.755 -106.621ZM754.953 -105.78C769.778 -105.433 784.893 -105.489 799.755 -106.621L799.376 -111.606C784.745 -110.493 769.814 -110.434 755.069 -110.778L754.953 -105.78ZM572.023 471.924C557.352 451.149 539.773 432.546 520.96 415.586L517.613 419.299C536.233 436.086 553.538 454.415 567.939 474.808L572.023 471.924Z" fill="#80DB7F" mask="url(#path-4-inside-1)"/>
<mask id="path-6-inside-2" fill="white">
<path d="M1173.04 133.393C1265.22 308.663 1375.9 461.916 1022.6 617.657C852.665 707.031 751.818 783.815 539.906 483.734C524.439 461.831 505.88 442.182 485.964 424.228C195.162 162.062 444.363 -141.997 736.788 -135.168C752.52 -134.801 768.506 -134.862 784.197 -136.056C1109.53 -160.82 1113.17 19.555 1173.04 133.393Z"/>
</mask>
<path d="M1173.04 133.393L1171.72 134.091L1173.04 133.393ZM1022.6 617.657L1021.99 616.284L1021.94 616.305L1021.9 616.329L1022.6 617.657ZM736.788 -135.168L736.753 -133.669L736.788 -135.168ZM784.197 -136.056L784.083 -137.552L784.197 -136.056ZM539.906 483.734L541.131 482.869L539.906 483.734ZM485.964 424.228L484.96 425.342L485.964 424.228ZM1171.72 134.091C1194.8 177.974 1218.94 220.316 1236.73 261.693C1254.51 303.051 1265.84 343.252 1263.38 382.755C1258.46 461.559 1198.52 538.468 1021.99 616.284L1023.2 619.03C1199.98 541.105 1261.35 463.517 1266.37 382.942C1268.88 342.755 1257.34 302.046 1239.49 260.508C1221.64 218.988 1197.38 176.446 1174.37 132.695L1171.72 134.091ZM1021.9 616.329C979.354 638.705 941.292 660.205 904.716 675.248C868.173 690.277 833.273 698.786 797.14 695.248C724.904 688.175 647.055 632.864 541.131 482.869L538.681 484.599C644.669 634.686 723.2 691.023 796.848 698.234C833.657 701.838 869.076 693.149 905.857 678.022C942.605 662.909 980.874 641.295 1023.29 618.985L1021.9 616.329ZM486.969 423.114C414.454 357.74 375.709 289.853 362.822 224.969C349.937 160.092 362.878 98.0881 393.964 44.4085C456.164 -62.9992 591.027 -137.072 736.753 -133.669L736.823 -136.668C590.124 -140.094 454.175 -65.5512 391.368 42.9051C359.951 97.1575 346.84 159.898 359.88 225.553C372.918 291.201 412.073 359.633 484.96 425.342L486.969 423.114ZM784.311 -134.561C946.686 -146.921 1028.39 -108.075 1077.04 -52.3213C1101.41 -24.3863 1117.57 7.88622 1131.4 40.371C1145.19 72.7736 1156.71 105.563 1171.72 134.091L1174.37 132.695C1159.44 104.304 1148.06 71.8569 1134.16 39.1962C1120.29 6.61763 1103.98 -26.0005 1079.3 -54.2936C1029.82 -110.996 947.038 -149.956 784.083 -137.552L784.311 -134.561ZM736.753 -133.669C752.51 -133.301 768.55 -133.361 784.311 -134.561L784.083 -137.552C768.461 -136.363 752.531 -136.301 736.823 -136.668L736.753 -133.669ZM541.131 482.869C525.583 460.851 506.942 441.12 486.969 423.114L484.96 425.342C504.817 443.244 523.294 462.811 538.681 484.599L541.131 482.869Z" fill="#80DB7F" mask="url(#path-6-inside-2)"/>
<mask id="mask0" mask-type="alpha" maskUnits="userSpaceOnUse" x="-574" y="193" width="1755" height="904">
<rect x="-573.047" y="193.999" width="1753.96" height="902.561" fill="#272A3E"/>
<rect x="-573.047" y="193.999" width="1753.96" height="902.561" fill="url(#paint3_linear)"/>
</mask>
<g mask="url(#mask0)">
<mask id="path-9-inside-3" fill="white">
<path d="M100.12 1446.01C108.436 1119.18 69.9648 814.114 739.315 802.885C1073.52 775.39 1544.07 714.844 1612.1 1309.11C1617.07 1352.48 1376.54 1402.36 1391.62 1442.55C1611.77 2029.51 951.209 1757.43 512.217 1559.41C501.447 1554.55 419.376 1416.67 355.54 1330.79C256.251 1197.2 7.57775 1654.11 86.9228 1507.79C94.1658 1494.43 99.393 1474.59 100.12 1446.01Z"/>
</mask>
<path d="M100.12 1446.01L97.6211 1445.94L100.12 1446.01ZM739.315 802.885L739.357 805.384L739.439 805.383L739.52 805.376L739.315 802.885ZM512.217 1559.41L511.189 1561.69L512.217 1559.41ZM1612.1 1309.11L1609.62 1309.39L1612.1 1309.11ZM1391.62 1442.55L1393.96 1441.68L1391.62 1442.55ZM86.9228 1507.79L89.1205 1508.98L86.9228 1507.79ZM102.619 1446.07C104.702 1364.23 103.854 1284.08 111.861 1209.48C119.863 1134.93 136.686 1066.24 173.942 1007.43C248.335 890.011 404.925 810.995 739.357 805.384L739.273 800.385C404.354 806.004 245.505 885.135 169.718 1004.76C131.883 1064.48 114.931 1134.03 106.89 1208.95C98.8539 1283.82 99.6969 1364.36 97.6211 1445.94L102.619 1446.07ZM739.52 805.376C906.821 791.613 1107.41 769.697 1274.73 825.209C1358.3 852.932 1433.48 899.953 1492.03 976.951C1550.6 1053.97 1592.65 1161.15 1609.62 1309.39L1614.58 1308.82C1597.54 1159.93 1555.26 1051.83 1496.01 973.925C1436.76 895.998 1360.66 848.45 1276.31 820.464C1107.8 764.557 906.01 786.662 739.11 800.393L739.52 805.376ZM1389.28 1443.43C1444.29 1590.1 1443.82 1682.02 1406.78 1734.85C1369.8 1787.57 1295.47 1802.55 1199.35 1792.86C1103.42 1783.19 986.811 1749.05 866.645 1704.88C746.512 1660.73 622.983 1606.63 513.245 1557.13L511.189 1561.69C620.947 1611.2 744.611 1665.36 864.92 1709.58C985.197 1753.78 1102.28 1788.1 1198.85 1797.84C1295.22 1807.55 1372.19 1792.87 1410.87 1737.72C1449.48 1682.66 1449.03 1588.49 1393.96 1441.68L1389.28 1443.43ZM89.1205 1508.98C96.6104 1495.17 101.886 1474.9 102.619 1446.07L97.6211 1445.94C96.9002 1474.28 91.7212 1493.69 84.7251 1506.6L89.1205 1508.98ZM513.245 1557.13C513.253 1557.14 513.201 1557.11 513.082 1557.03C512.967 1556.95 512.817 1556.84 512.629 1556.67C512.251 1556.35 511.78 1555.89 511.214 1555.28C510.081 1554.07 508.669 1552.36 506.99 1550.19C503.636 1545.84 499.33 1539.77 494.235 1532.31C484.047 1517.38 470.801 1497.04 455.873 1474.12C426.041 1428.32 389.52 1372.31 357.547 1329.29L353.534 1332.28C385.397 1375.15 421.829 1431.02 451.684 1476.85C466.599 1499.75 479.88 1520.15 490.105 1535.13C495.215 1542.61 499.587 1548.78 503.032 1553.24C504.753 1555.47 506.271 1557.31 507.555 1558.69C508.745 1559.97 510.003 1561.15 511.189 1561.69L513.245 1557.13ZM1609.62 1309.39C1610.1 1313.58 1607.65 1318.36 1601.74 1323.81C1595.91 1329.18 1587.2 1334.72 1576.46 1340.39C1554.99 1351.72 1526 1363.22 1497.15 1374.7C1468.38 1386.14 1439.73 1397.55 1419.22 1408.65C1408.98 1414.18 1400.57 1419.74 1395.17 1425.32C1389.81 1430.87 1386.88 1437.04 1389.28 1443.43L1393.96 1441.68C1392.59 1438.02 1393.89 1433.84 1398.77 1428.8C1403.62 1423.78 1411.48 1418.51 1421.6 1413.04C1441.79 1402.12 1470.13 1390.82 1498.99 1379.34C1527.76 1367.9 1557.03 1356.29 1578.79 1344.81C1589.66 1339.08 1598.82 1333.3 1605.13 1327.48C1611.36 1321.74 1615.35 1315.48 1614.58 1308.82L1609.62 1309.39ZM84.7251 1506.6C79.7679 1515.74 76.0846 1522.54 73.5659 1527.27C72.3071 1529.64 71.3315 1531.5 70.6303 1532.89C69.9613 1534.22 69.4613 1535.27 69.2441 1535.91C69.1958 1536.05 69.0909 1536.37 69.0581 1536.74C69.0448 1536.89 69.0067 1537.37 69.2208 1537.93C69.3436 1538.2 69.7248 1538.74 69.9963 1538.99C70.3282 1539.22 71.0324 1539.49 71.3902 1539.54C72.1632 1539.6 72.7216 1539.29 72.8666 1539.21C73.0861 1539.08 73.2498 1538.95 73.3404 1538.87C73.5286 1538.71 73.6917 1538.53 73.8085 1538.4C74.2707 1537.88 74.9531 1536.95 75.7796 1535.78C77.4779 1533.39 80.1086 1529.51 83.5258 1524.48C97.2283 1504.31 123.924 1465.17 156.18 1425.64C188.483 1386.06 226.17 1346.33 261.815 1324.8C279.636 1314.04 296.69 1307.98 312.147 1308.54C327.452 1309.08 341.523 1316.12 353.534 1332.28L357.547 1329.29C344.734 1312.06 329.315 1304.15 312.326 1303.54C295.489 1302.94 277.446 1309.52 259.231 1320.52C222.804 1342.52 184.666 1382.82 152.307 1422.48C119.901 1462.19 93.1008 1501.49 79.3902 1521.67C75.9541 1526.72 73.3617 1530.55 71.7002 1532.89C70.8468 1534.1 70.3152 1534.8 70.0583 1535.09C69.9954 1535.16 70.0096 1535.14 70.0804 1535.08C70.1123 1535.05 70.2251 1534.96 70.4016 1534.86C70.5036 1534.8 71.027 1534.5 71.7729 1534.56C72.1172 1534.61 72.8098 1534.88 73.1322 1535.09C73.394 1535.34 73.7677 1535.87 73.8849 1536.12C74.0879 1536.65 74.0466 1537.09 74.0384 1537.18C74.0155 1537.44 73.9529 1537.59 73.9795 1537.51C74.0623 1537.27 74.3864 1536.55 75.0948 1535.14C75.7709 1533.8 76.7259 1531.98 77.9801 1529.62C80.4873 1524.91 84.1596 1518.13 89.1205 1508.98L84.7251 1506.6Z" fill="#BE8AFF" mask="url(#path-9-inside-3)"/>
<mask id="path-11-inside-4" fill="white">
<path d="M77.4408 1457.94C86.2896 1110.18 45.3535 785.577 757.579 773.628C1113.19 744.372 1444.1 656.072 1516.48 1288.4C1521.77 1334.55 1435.63 1411.5 1451.67 1454.27C1685.92 2078.83 1397.72 1734.18 930.611 1523.48C919.392 1518.42 756.807 1419.77 607.261 1361.32C438.008 1295.17 69.5124 1645.67 77.2318 1464.12C77.3174 1462.1 77.3873 1460.05 77.4408 1457.94Z"/>
</mask>
<path d="M77.4408 1457.94L75.9413 1457.91L77.4408 1457.94ZM757.579 773.628L757.604 775.128L757.653 775.127L757.702 775.123L757.579 773.628ZM930.611 1523.48L931.228 1522.11L930.611 1523.48ZM1516.48 1288.4L1514.99 1288.57L1516.48 1288.4ZM1451.67 1454.27L1453.07 1453.74L1451.67 1454.27ZM77.2318 1464.12L78.7304 1464.18L77.2318 1464.12ZM78.9403 1457.98C81.1545 1370.96 80.2538 1285.59 88.7802 1206.15C97.3035 1126.74 115.235 1053.44 155.011 990.659C234.493 865.203 401.637 781.1 757.604 775.128L757.554 772.128C401.295 778.105 232.795 862.278 152.476 989.053C112.352 1052.39 94.3442 1126.2 85.7973 1205.83C77.2535 1285.43 78.1515 1371.04 75.9413 1457.91L78.9403 1457.98ZM757.702 775.123C846.698 767.801 933.933 756.808 1016.05 754.297C1098.13 751.787 1174.86 757.771 1242.69 784.317C1378.15 837.326 1478.83 972.631 1514.99 1288.57L1517.97 1288.23C1481.75 971.841 1380.78 835.132 1243.79 781.523C1175.4 754.761 1098.2 748.784 1015.96 751.298C933.746 753.812 846.264 764.827 757.456 772.133L757.702 775.123ZM1450.27 1454.8C1479.54 1532.85 1500.64 1595.73 1514.25 1645.6C1527.86 1695.5 1533.95 1732.27 1533.27 1758.16C1532.59 1784.07 1525.15 1798.61 1512.26 1804.84C1499.18 1811.16 1479.88 1809.27 1454.64 1800.68C1404.24 1783.52 1331.92 1740.32 1242.79 1688.09C1153.74 1635.91 1048.09 1574.82 931.228 1522.11L929.994 1524.85C1046.69 1577.49 1152.23 1638.5 1241.27 1690.68C1330.24 1742.81 1402.91 1786.24 1453.67 1803.52C1479 1812.14 1499.32 1814.42 1513.56 1807.54C1527.99 1800.57 1535.57 1784.55 1536.27 1758.24C1536.96 1731.9 1530.78 1694.78 1517.14 1644.81C1503.5 1594.81 1482.36 1531.83 1453.07 1453.74L1450.27 1454.8ZM78.7304 1464.18C78.8164 1462.16 78.8866 1460.09 78.9403 1457.98L75.9413 1457.91C75.888 1460 75.8184 1462.05 75.7331 1464.05L78.7304 1464.18ZM931.228 1522.11C929.906 1521.52 926.22 1519.47 920.37 1516.15C914.542 1512.85 906.726 1508.37 897.125 1502.92C877.963 1492.05 851.903 1477.41 821.518 1461.1C760.755 1428.49 682.662 1389.18 607.807 1359.93L606.715 1362.72C681.406 1391.91 759.378 1431.15 820.099 1463.74C850.456 1480.03 876.493 1494.66 895.644 1505.53C905.2 1510.95 913.094 1515.47 918.89 1518.76C924.662 1522.03 928.511 1524.18 929.994 1524.85L931.228 1522.11ZM1514.99 1288.57C1516.26 1299.65 1512.04 1312.79 1504.98 1327.11C1497.94 1341.4 1488.22 1356.6 1478.77 1371.81C1469.34 1386.97 1460.18 1402.15 1454.38 1416.23C1448.61 1430.27 1446.05 1443.56 1450.27 1454.8L1453.07 1453.74C1449.27 1443.6 1451.46 1431.22 1457.16 1417.37C1462.84 1403.55 1471.87 1388.58 1481.32 1373.4C1490.73 1358.25 1500.55 1342.89 1507.68 1328.44C1514.78 1314.02 1519.35 1300.22 1517.97 1288.23L1514.99 1288.57ZM75.7331 1464.05C74.7607 1486.92 79.6845 1501.91 89.8976 1510.27C100.082 1518.62 115.064 1519.99 133.249 1516.82C151.481 1513.65 173.295 1505.83 197.515 1495.31C221.749 1484.78 248.481 1471.5 276.558 1457.34C332.75 1428.99 394.34 1397.1 452.458 1376.42C510.638 1355.72 564.945 1346.39 606.715 1362.72L607.807 1359.93C564.951 1343.18 509.726 1352.86 451.452 1373.6C393.115 1394.36 331.329 1426.34 275.206 1454.66C247.125 1468.82 220.464 1482.07 196.319 1492.56C172.159 1503.06 150.607 1510.75 132.733 1513.87C114.812 1516.99 100.95 1515.45 91.7988 1507.95C82.6762 1500.48 77.773 1486.7 78.7304 1464.18L75.7331 1464.05Z" fill="#BE8AFF" mask="url(#path-11-inside-4)"/>
</g>
<mask id="path-13-inside-5" fill="white">
<path d="M-169.819 844.286C-372.012 905.036 -560.338 1022.7 -683.342 611.352C-758.464 411.502 -786.155 289.618 -425.765 97.2807C-399.461 83.2422 -375.215 65.4808 -352.653 45.9888C-23.1927 -238.633 277.849 78.3538 229.894 400.06C227.314 417.368 225.172 435.014 224.321 452.492C206.676 814.871 -32.842 803.13 -169.819 844.286Z"/>
</mask>
<path d="M-169.819 844.286L-170.25 842.849L-169.819 844.286ZM-683.342 611.352L-681.905 610.922L-681.92 610.872L-681.938 610.824L-683.342 611.352ZM229.894 400.06L228.41 399.839L229.894 400.06ZM224.321 452.492L225.819 452.565L224.321 452.492ZM-425.765 97.2807L-425.059 98.6041L-425.765 97.2807ZM-352.653 45.9888L-353.633 44.8537L-352.653 45.9888ZM-170.25 842.849C-195.551 850.451 -220.635 858.943 -245.364 867.167C-270.104 875.395 -294.493 883.356 -318.456 889.918C-366.396 903.046 -412.487 910.528 -456.033 903.376C-542.882 889.112 -620.449 816.441 -681.905 610.922L-684.779 611.781C-623.231 817.611 -545.133 891.782 -456.519 906.336C-412.335 913.593 -365.745 905.978 -317.663 892.812C-293.615 886.227 -269.158 878.242 -244.417 870.014C-219.665 861.782 -194.635 853.308 -169.387 845.722L-170.25 842.849ZM-681.938 610.824C-719.528 510.821 -744.981 430.908 -716.46 352.009C-687.93 273.083 -605.217 194.753 -425.059 98.6041L-426.471 95.9574C-606.703 192.146 -690.34 270.927 -719.281 350.989C-748.232 431.079 -722.278 512.033 -684.746 611.879L-681.938 610.824ZM-351.672 47.1238C-269.497 -23.8678 -189.204 -57.2533 -115.788 -62.5063C-42.38 -67.7588 24.2833 -44.8951 79.2441 -3.15412C189.21 80.3618 252.316 239.468 228.41 399.839L231.377 400.282C255.427 238.947 191.99 78.7056 81.0585 -5.5432C25.5707 -47.6845 -41.803 -70.8077 -116.002 -65.4986C-190.194 -60.1901 -271.079 -26.4658 -353.633 44.8537L-351.672 47.1238ZM222.822 452.419C214.019 633.221 149.918 720.365 71.2288 767.561C31.8141 791.201 -11.3502 804.873 -53.2877 815.208C-95.108 825.515 -135.983 832.553 -170.25 842.849L-169.387 845.722C-135.166 835.44 -94.7351 828.513 -52.5698 818.121C-10.5216 807.759 32.9794 794.001 72.7719 770.134C152.497 722.317 216.977 634.143 225.819 452.565L222.822 452.419ZM228.41 399.839C225.827 417.171 223.677 434.871 222.822 452.419L225.819 452.565C226.667 435.157 228.801 417.565 231.377 400.282L228.41 399.839ZM-425.059 98.6041C-398.63 84.4994 -374.294 66.6667 -351.672 47.1238L-353.633 44.8537C-376.137 64.2948 -400.291 81.9849 -426.471 95.9574L-425.059 98.6041Z" fill="#FF7394" mask="url(#path-13-inside-5)"/>
<mask id="path-15-inside-6" fill="white">
<path d="M-170.906 865.436C-392.109 920.262 -586.44 1055.28 -717.323 617.581C-797.257 404.93 -816.988 265.104 -433.513 60.447C-405.523 45.5091 -379.725 26.6101 -355.717 5.86949C-5.1537 -296.984 315.172 40.3078 264.145 382.621C261.399 401.038 259.12 419.814 258.214 438.412C239.439 824.003 -23.1878 828.824 -170.906 865.436Z"/>
</mask>
<path d="M-170.906 865.436L-171.507 863.009L-170.906 865.436ZM-717.323 617.581L-714.928 616.865L-714.952 616.782L-714.983 616.702L-717.323 617.581ZM264.145 382.621L266.617 382.99L264.145 382.621ZM258.214 438.412L255.717 438.29L258.214 438.412ZM-433.513 60.447L-432.336 62.6525L-433.513 60.447ZM-355.717 5.86949L-357.351 3.97767L-355.717 5.86949ZM-171.507 863.009C-199.225 869.88 -226.51 878.002 -253.249 886.086C-280.008 894.176 -306.204 902.222 -331.835 908.972C-383.12 922.478 -431.832 930.707 -477.608 923.734C-568.704 909.857 -649.561 835.465 -714.928 616.865L-719.718 618.297C-654.202 837.395 -572.452 914.344 -478.361 928.677C-431.543 935.808 -382.017 927.358 -330.561 913.807C-304.822 907.029 -278.522 898.951 -251.802 890.873C-225.063 882.789 -197.887 874.699 -170.304 867.863L-171.507 863.009ZM-714.983 616.702C-754.967 510.33 -779.499 423.048 -746.859 336.902C-714.192 250.688 -623.986 164.934 -432.336 62.6525L-434.69 58.2414C-626.515 160.617 -718.181 247.104 -751.534 335.131C-784.913 423.225 -759.613 512.181 -719.663 618.461L-714.983 616.702ZM-354.083 7.7613C-266.758 -67.6789 -181.5 -103.101 -103.616 -108.674C-25.7438 -114.245 44.9757 -89.9955 103.298 -45.7013C220.017 42.9434 287.066 211.899 261.672 382.253L266.617 382.99C292.25 211.03 224.65 40.183 106.322 -49.6832C47.1212 -94.6445 -24.7821 -119.327 -103.973 -113.661C-183.15 -107.996 -269.394 -72.0089 -357.351 3.97767L-354.083 7.7613ZM255.717 438.29C246.362 630.421 176.337 727.199 90.684 780.67C47.7583 807.468 0.772268 823.474 -44.7939 835.069C-67.5759 840.866 -89.9751 845.553 -111.329 849.942C-132.662 854.326 -152.982 858.418 -171.507 863.009L-170.304 867.863C-151.9 863.301 -131.7 859.233 -110.323 854.84C-88.9667 850.451 -66.4665 845.743 -43.561 839.914C2.24773 828.258 49.789 812.095 93.3318 784.912C180.616 730.422 251.291 631.994 260.711 438.533L255.717 438.29ZM261.672 382.253C258.921 400.709 256.629 419.576 255.717 438.29L260.711 438.533C261.611 420.052 263.878 401.366 266.617 382.99L261.672 382.253ZM-432.336 62.6525C-404.14 47.6046 -378.189 28.5866 -354.083 7.7613L-357.351 3.97767C-381.261 24.6335 -406.907 43.4138 -434.69 58.2414L-432.336 62.6525Z" fill="#FF7394" mask="url(#path-15-inside-6)"/>
</g>
<defs>
<linearGradient id="paint0_linear" x1="800.538" y1="877.217" x2="424.166" y2="1608.04" gradientUnits="userSpaceOnUse">
<stop stop-color="#F8FBFF" stop-opacity="0.49"/>
<stop offset="1" stop-color="#F8FBFF" stop-opacity="0"/>
</linearGradient>
<linearGradient id="paint1_linear" x1="327.138" y1="298.458" x2="-551.671" y2="562.161" gradientUnits="userSpaceOnUse">
<stop stop-color="#F8FBFF" stop-opacity="0.49"/>
<stop offset="1" stop-color="#F8FBFF" stop-opacity="0"/>
</linearGradient>
<linearGradient id="paint2_linear" x1="815.757" y1="746.076" x2="831.402" y2="163.865" gradientUnits="userSpaceOnUse">
<stop stop-color="#F8FBFF" stop-opacity="0.49"/>
<stop offset="1" stop-color="#F8FBFF" stop-opacity="0"/>
</linearGradient>
<linearGradient id="paint3_linear" x1="169.356" y1="965.762" x2="169.356" y2="178.033" gradientUnits="userSpaceOnUse">
<stop stop-color="#292C40"/>
<stop offset="1" stop-color="#3B3F5A"/>
</linearGradient>
<clipPath id="clip0">
<rect width="768" height="1024" fill="white"/>
</clipPath>
</defs>
</svg>
