<svg width="160" height="42" viewBox="0 0 160 42" fill="none" xmlns="http://www.w3.org/2000/svg">
<path fill-rule="evenodd" clip-rule="evenodd" d="M0 34.9972L6.05438 31.4979L12.1047 27.9985L14.5006 34.9972L12.1047 41.9999L6.05438 38.5006L0 34.9972Z" fill="#E60470"/>
<path fill-rule="evenodd" clip-rule="evenodd" d="M24.2095 34.9972L20.2353 28.9109L12.1048 27.9985V34.9972V41.9999L18.1551 38.5006L24.2095 34.9972Z" fill="#CB4B96"/>
<path fill-rule="evenodd" clip-rule="evenodd" d="M12.1048 28.0149L16.2652 22.4922L24.2095 21.0122V28.0149V35.0176L18.1551 31.5142L12.1048 28.0149Z" fill="#6A2E87"/>
<path fill-rule="evenodd" clip-rule="evenodd" d="M24.2095 21.004L18.1551 17.5047L12.1048 14.0054L9.07758 21.004L12.1048 28.0067L18.1551 24.5074L24.2095 21.004Z" fill="#EF4E54"/>
<path fill-rule="evenodd" clip-rule="evenodd" d="M0 21.0121L4.54079 13.8472L12.1047 14.0094V21.0121V28.0148L6.05438 24.5114L0 21.0121Z" fill="#BED12A"/>
<path fill-rule="evenodd" clip-rule="evenodd" d="M12.1047 14.0054L8.32073 7.72445L0 7.00269V14.0054V21.004L6.05438 17.5047L12.1047 14.0054Z" fill="#2FB24A"/>
<path fill-rule="evenodd" clip-rule="evenodd" d="M0 7.0027L6.05438 3.49932L12.1047 0L14.5006 7.0027L12.1047 14.0054L6.05438 10.502L0 7.0027Z" fill="#2160B2"/>
<path fill-rule="evenodd" clip-rule="evenodd" d="M24.2095 7.0027L18.1551 10.502L12.1048 14.0054V7.0027V0L18.1551 3.49932L24.2095 7.0027Z" fill="#01B2DC"/>
<path d="M35.95 16.5964C35.9462 16.2024 36.0363 15.8131 36.213 15.4611C36.3903 15.105 36.648 14.7954 36.9658 14.5568C37.3225 14.2895 37.7222 14.0852 38.1475 13.9527C38.6464 13.7963 39.1668 13.7197 39.6895 13.7256C40.5769 13.7217 41.4579 13.8754 42.2917 14.1797C43.1931 14.5213 44.0294 15.0151 44.7645 15.6395L45.9219 14.1027C45.0794 13.4177 44.1342 12.8704 43.1214 12.4808C42.0364 12.0988 40.8918 11.9148 39.7421 11.9374C38.9569 11.9291 38.1758 12.0525 37.4312 12.3023C36.7642 12.5251 36.1431 12.8672 35.5979 13.312C35.0853 13.722 34.6705 14.2415 34.3838 14.8326C34.0933 15.4368 33.9465 16.1002 33.9548 16.7708C33.9389 17.4263 34.0588 18.0779 34.3069 18.6847C34.5518 19.2333 34.9219 19.7167 35.3875 20.0957C35.9427 20.5372 36.566 20.885 37.2329 21.1257C38.0887 21.4413 38.9666 21.6934 39.8594 21.8799C40.6301 22.041 41.3897 22.2509 42.1339 22.5084C42.6333 22.677 43.1031 22.9233 43.5261 23.2382C43.8333 23.4718 44.0757 23.7803 44.2302 24.1344C44.3697 24.4907 44.4384 24.8708 44.4326 25.2535C44.4439 25.6777 44.3527 26.0984 44.1666 26.4797C43.9806 26.861 43.7053 27.1915 43.3642 27.4431C42.5338 28.0344 41.5284 28.3273 40.511 28.2743C39.4009 28.2956 38.2984 28.0858 37.2734 27.658C36.2483 27.1881 35.3065 26.554 34.485 25.7806L33.2506 27.2404C34.2239 28.1451 35.3522 28.8662 36.5813 29.3692C37.8113 29.8438 39.1202 30.0791 40.4382 30.0625C41.261 30.0722 42.0802 29.9531 42.8664 29.7098C43.5561 29.4989 44.199 29.1576 44.7604 28.7042C45.2996 28.2635 45.7323 27.7063 46.026 27.0743C46.3197 26.4423 46.4667 25.7519 46.4561 25.0548C46.4851 24.4508 46.3746 23.8482 46.1331 23.294C45.8916 22.7398 45.5258 22.2489 45.0639 21.8596C44.1331 21.0892 42.6883 20.485 40.7295 20.0471C39.9196 19.8898 39.1218 19.6757 38.3418 19.4064C37.8206 19.231 37.3292 18.9766 36.8849 18.6522C36.5651 18.4153 36.3138 18.0977 36.1564 17.7318C36.0192 17.3707 35.9519 16.9868 35.9581 16.6005L35.95 16.5964ZM66.6347 17.8129C66.649 17.0033 66.4903 16.2 66.1693 15.457C65.8693 14.7739 65.4132 14.1711 64.8378 13.6972C64.2206 13.1974 63.5129 12.8215 62.7536 12.5902C61.8806 12.3142 60.9696 12.1773 60.0542 12.1848H53.4697V29.8071H55.4568V23.591H59.7264C60.6293 23.5983 61.5287 23.4768 62.3974 23.2301C63.1926 23.0081 63.9384 22.6366 64.595 22.1353C65.2212 21.6501 65.7314 21.0308 66.0883 20.3228C66.473 19.5419 66.6633 18.6794 66.6428 17.8088L66.6347 17.8129ZM64.6112 17.8859C64.6187 18.4367 64.504 18.9824 64.2753 19.4835C64.0464 19.9646 63.7115 20.3875 63.2959 20.7202C62.8387 21.0779 62.3183 21.3461 61.762 21.5109C61.1229 21.7025 60.4583 21.7955 59.7911 21.7866H55.4568V14.0297H59.9085C61.1275 13.9678 62.3331 14.3082 63.3404 14.9988C64.2011 15.6449 64.6314 16.6045 64.6314 17.8777L64.6112 17.8859ZM87.7643 29.8192L82.3615 22.6178C83.0239 22.5095 83.6673 22.306 84.2717 22.0137C84.835 21.7465 85.3483 21.3844 85.7894 20.9432C86.2205 20.5138 86.5594 20.0004 86.7849 19.4348C87.0275 18.8054 87.1457 18.1347 87.133 17.4601C87.1433 16.718 86.9899 15.9828 86.6838 15.307C86.3839 14.6647 85.9458 14.0969 85.4008 13.6445C84.8099 13.1645 84.1327 12.8025 83.4057 12.5781C82.5557 12.3129 81.6692 12.1843 80.7791 12.1969H73.2314V29.8192H75.2144V22.9625H80.2368L85.3401 29.8111L87.7643 29.8192ZM85.1257 17.5331C85.1344 18.065 85.0179 18.5915 84.7857 19.0699C84.5637 19.5189 84.241 19.9103 83.8427 20.2133C83.4149 20.539 82.9305 20.7823 82.4141 20.931C81.827 21.1046 81.2172 21.1894 80.6051 21.1824H75.2144V14.0297H80.6415C82.0661 14.0297 83.1709 14.3352 83.956 14.9461C84.3454 15.2492 84.656 15.6418 84.8617 16.0907C85.0675 16.5396 85.1621 17.0316 85.1378 17.525L85.1257 17.5331ZM94.535 12.1969V29.8192H96.5181V12.1888L94.535 12.1969ZM115.224 13.9851L103.843 28.4852V29.8192H117.935V28.0311H106.543L117.947 13.531V12.1969H104.232V13.9851H115.224ZM135.358 13.9851L123.977 28.4852V29.8192H138.077V28.0311H126.677L138.077 13.5228V12.1888H124.366V13.977L135.358 13.9851ZM152.691 22.8246L160.004 12.201H157.689L151.712 21L145.767 12.1888H143.338L150.684 22.8246V29.799H152.707L152.691 22.8246Z" fill="white"/>
</svg>
