<svg width="1439" height="276" viewBox="0 0 1439 276" fill="none" xmlns="http://www.w3.org/2000/svg">
<mask id="mask0" mask-type="alpha" maskUnits="userSpaceOnUse" x="0" y="0" width="1439" height="276">
<rect width="1439" height="276" fill="#272A3E"/>
<rect width="1439" height="276" fill="url(#paint0_linear)"/>
</mask>
<g mask="url(#mask0)">
<path d="M503 439.524C503 302.82 630.557 192 787.907 192L1617.27 192C1774.62 192 1902.18 302.82 1902.18 439.524C1902.18 576.228 1774.62 687.048 1617.27 687.048L787.907 687.048C630.557 687.048 503 576.228 503 439.524Z" fill="url(#paint1_linear)" fill-opacity="0.2"/>
<path d="M1009.91 185.429L1009.96 185.428L1010 185.425C1017.83 184.887 1025.75 184.327 1033.77 183.761C1145.68 175.865 1275.26 166.722 1384.58 197.039C1443.1 213.269 1495.79 240.807 1536.82 285.911C1577.86 331.024 1607.3 393.777 1619.17 480.517C1619.53 483.14 1617.7 486.022 1613.56 489.212C1609.45 492.375 1603.34 495.629 1595.81 498.947C1580.9 505.523 1560.82 512.199 1540.8 518.853L1540.3 519.02C1520.17 525.711 1500.14 532.382 1485.81 538.86C1478.66 542.094 1472.81 545.332 1469.06 548.567C1465.32 551.802 1463.42 555.286 1465 558.811C1484.23 601.659 1493.81 636.6 1495.3 664.719C1496.8 692.835 1490.21 714.05 1477.21 729.546C1451.24 760.498 1399.09 769.245 1331.81 763.576C1264.65 757.917 1183.04 737.938 1098.96 712.109C1014.9 686.285 928.469 654.642 851.696 625.694C851.539 625.635 851.146 625.4 850.484 624.836C849.858 624.303 849.091 623.565 848.186 622.624C846.378 620.744 844.08 618.119 841.36 614.865C835.921 608.359 828.845 599.401 820.713 588.997C817.903 585.402 814.967 581.634 811.93 577.737C797.401 559.093 780.561 537.484 764.093 517.537C754.918 506.425 744.71 500.354 733.809 498.182C722.917 496.013 711.544 497.778 700.152 501.994C677.444 510.4 654.193 528.728 633.518 546.22C629.868 549.308 626.3 552.369 622.826 555.349C616.417 560.845 610.329 566.068 604.637 570.681C595.84 577.81 588.149 583.347 581.877 586.124C578.745 587.511 576.118 588.139 573.969 588.035C571.901 587.934 570.109 587.148 568.602 585.374C567.059 583.558 565.827 580.711 565.044 576.565C564.263 572.434 563.944 567.099 564.149 560.376C564.505 548.664 564.739 537.009 564.971 525.444C565.686 489.769 566.384 454.953 570.616 421.993C576.218 378.367 587.998 338.142 614.101 303.702C666.228 234.925 775.905 188.71 1009.91 185.429Z" stroke="#BE8AFF" stroke-width="2.5"/>
<path d="M1022.7 167.87L1022.73 167.87L1022.76 167.868C1042.97 166.478 1063.05 164.862 1082.92 163.262C1124.26 159.935 1164.7 156.68 1203.5 155.688C1260.94 154.22 1314.65 157.718 1362.15 173.258C1457.06 204.304 1527.52 283.543 1552.83 468.337C1553.73 474.886 1550.74 482.609 1545.8 490.988C1541.43 498.409 1535.58 506.25 1529.7 514.132C1528.95 515.136 1528.2 516.14 1527.45 517.143C1520.86 526.013 1514.46 534.874 1510.41 543.094C1506.37 551.301 1504.62 559.003 1507.53 565.491C1528.01 611.138 1542.78 647.916 1552.3 677.091C1561.83 706.279 1566.09 727.811 1565.61 742.983C1565.14 758.176 1559.92 766.753 1550.81 770.431C1541.59 774.154 1528.02 773.032 1510.34 768.002C1477.15 758.56 1430.4 735.634 1373.09 707.536C1369.47 705.758 1365.8 703.96 1362.09 702.143C1299.79 671.627 1225.89 635.911 1144.15 605.091C1143.21 604.738 1140.63 603.537 1136.55 601.605C1134.68 600.716 1132.5 599.681 1130.05 598.511C1127.19 597.147 1123.94 595.6 1120.33 593.89C1106.97 587.547 1088.79 579.01 1067.59 569.496C1025.19 550.469 970.689 527.528 918.405 510.414C889.319 500.893 851.272 506.234 810.802 517.823C774.176 528.311 735.389 543.972 699.186 558.589C695.354 560.137 691.551 561.672 687.783 563.189C648.348 579.057 612.784 592.801 587.287 596.168C574.545 597.851 564.514 596.914 557.763 592.522C551.029 588.141 547.344 580.18 547.734 567.367C548.113 554.916 548.362 542.522 548.608 530.22C549.369 492.254 550.113 455.174 554.619 420.078C560.584 373.621 573.135 330.727 600.985 293.981C656.639 220.55 773.649 171.363 1022.7 167.87Z" stroke="#BE8AFF" stroke-width="1.5"/>
<path d="M609.967 -914.629C742.329 -994.915 931.897 -965.229 1033.38 -848.323L1487.62 -325.044C1589.1 -208.138 1564.07 -48.2823 1431.71 32.0041C1299.34 112.29 1109.78 82.6042 1008.29 -34.3019L554.053 -557.58C452.571 -674.486 477.604 -834.342 609.967 -914.629Z" fill="url(#paint2_linear)" fill-opacity="0.2"/>
<path d="M1338.66 51.2453L1338.62 51.2618L1338.57 51.281C1332.66 53.8795 1326.89 56.4555 1321.22 58.9804C1300.07 68.4129 1280.52 77.1327 1261.57 83.6476C1237.58 91.8943 1214.69 96.5567 1191 94.6175C1143.61 90.7391 1092.48 60.4023 1022.85 -22.0244C1012.61 -34.1412 1000.34 -44.996 987.2 -54.8983C939.548 -90.8092 914.117 -128.079 905.663 -163.663C897.212 -199.232 905.7 -233.206 926.074 -262.615C966.85 -321.474 1055.34 -362.148 1151.07 -360.279C1161.43 -360.077 1171.99 -360.11 1182.36 -360.77C1289.06 -367.559 1342.7 -346.221 1374.62 -315.636C1390.62 -300.308 1401.24 -282.597 1410.32 -264.754C1413.2 -259.103 1415.93 -253.426 1418.63 -247.806C1424.43 -235.737 1430.1 -223.933 1436.84 -213.228C1440.56 -207.317 1444.32 -201.46 1448.05 -195.649C1459.54 -177.738 1470.75 -160.277 1479.57 -143.117C1491.26 -120.397 1498.68 -98.3579 1497.07 -76.7312C1493.85 -33.6829 1454.71 8.48507 1338.66 51.2453Z" stroke="#80DB7F" stroke-width="2.5"/>
<path d="M1338.13 62.4477L1338.1 62.4576L1338.08 62.4691C1331.8 65.2295 1325.66 67.9676 1319.64 70.6525C1297.12 80.6914 1276.28 89.9871 1256.08 96.9308C1230.5 105.724 1206.04 110.715 1180.7 108.641C1130.01 104.492 1075.48 72.0525 1001.37 -15.67C990.507 -28.5261 977.483 -40.0504 963.523 -50.5708C912.75 -88.8331 885.608 -128.578 876.58 -166.574C867.555 -204.561 876.622 -240.853 898.381 -272.262C941.917 -335.105 1036.32 -378.46 1138.37 -376.468C1149.39 -376.253 1160.6 -376.288 1171.61 -376.989C1285.26 -384.22 1342.54 -361.496 1376.66 -328.804C1393.74 -312.437 1405.06 -293.536 1414.74 -274.533C1417.81 -268.499 1420.72 -262.446 1423.6 -256.461C1429.76 -243.632 1435.78 -231.112 1442.94 -219.743C1446.89 -213.464 1450.88 -207.237 1454.85 -201.057C1467.08 -181.994 1479.03 -163.388 1488.43 -145.106C1500.88 -120.903 1508.82 -97.3621 1507.09 -74.224C1503.65 -28.0709 1461.65 16.9314 1338.13 62.4477Z" stroke="#80DB7F" stroke-width="1.5"/>
<path d="M-842.522 134.946C-878.132 1.52284 -796.95 -127.162 -661.197 -152.479L212.802 -315.476C348.555 -340.794 487.473 -253.157 523.083 -119.733C558.694 13.6902 477.512 142.375 341.759 167.692L-532.24 330.689C-667.993 356.007 -806.911 268.37 -842.522 134.946Z" fill="url(#paint3_linear)" fill-opacity="0.2"/>
<path d="M-119.526 61.1578L-119.534 61.1358L-119.543 61.1144C-145.839 2.63831 -163.681 -44.1606 -143.698 -90.3698C-123.713 -136.584 -65.7924 -182.414 60.2507 -238.645C78.7232 -246.886 95.7373 -257.307 111.556 -268.73C169.067 -310.262 225.279 -329.807 276.701 -332.882C328.121 -335.958 374.823 -322.569 413.324 -298.127C490.349 -249.227 534.518 -156.097 517.784 -62.2577C515.977 -52.125 514.474 -41.7803 513.877 -31.5269C510.795 21.3786 498.029 60.5746 479.161 89.9906C460.3 119.398 435.318 139.067 407.732 152.898C380.133 166.735 349.912 174.736 320.564 180.781C309 183.164 297.548 185.246 286.446 187.265C269.438 190.357 253.253 193.3 238.749 196.943C223.433 200.79 208.23 205.027 193.201 209.215C190.865 209.866 188.534 210.516 186.207 211.163C168.899 215.974 151.832 220.631 135.062 224.47C101.514 232.149 69.2296 236.534 38.7108 232.344C-22.2113 223.98 -76.5255 181.364 -119.526 61.1578Z" stroke="#FF7394" stroke-width="1.5"/>
<path d="M-142.781 64.6532L-142.794 64.6166L-142.81 64.5809C-170.784 2.37238 -188 -48.7759 -165.114 -99.2657C-142.219 -149.777 -79.0226 -199.963 55.0673 -259.784C74.7655 -268.571 92.901 -279.68 109.753 -291.85C170.881 -335.994 230.594 -356.744 285.183 -360.009C339.769 -363.274 389.352 -349.062 430.239 -323.105C512.051 -271.166 558.992 -172.22 541.211 -72.5059C539.287 -61.7173 537.685 -50.6948 537.048 -39.7651C530.499 72.6721 481.467 129.352 421.445 160.673C391.374 176.366 358.465 185.736 326.568 192.52C310.621 195.912 294.943 198.655 280.004 201.221C278.675 201.45 277.352 201.677 276.034 201.902C262.557 204.214 249.717 206.416 237.919 208.86C218.538 212.876 199.458 217.624 180.751 222.351C178.862 222.829 176.977 223.306 175.096 223.782C158.338 228.024 141.89 232.187 125.761 235.738C89.8732 243.638 55.7289 248.466 23.6164 244.377C-40.3907 236.226 -97.0402 192.52 -142.781 64.6532Z" stroke="#FF7394" stroke-width="2.5"/>
</g>
<defs>
<linearGradient id="paint0_linear" x1="609.088" y1="236.002" x2="609.088" y2="-4.88243" gradientUnits="userSpaceOnUse">
<stop stop-color="#292C40"/>
<stop offset="1" stop-color="#3B3F5A"/>
</linearGradient>
<linearGradient id="paint1_linear" x1="990.838" y1="234.382" x2="794.451" y2="690.569" gradientUnits="userSpaceOnUse">
<stop stop-color="#F8FBFF" stop-opacity="0.49"/>
<stop offset="1" stop-color="#F8FBFF" stop-opacity="0"/>
</linearGradient>
<linearGradient id="paint2_linear" x1="1119.45" y1="68.2772" x2="1127.1" y2="-272.271" gradientUnits="userSpaceOnUse">
<stop stop-color="#F8FBFF" stop-opacity="0.49"/>
<stop offset="1" stop-color="#F8FBFF" stop-opacity="0"/>
</linearGradient>
<linearGradient id="paint3_linear" x1="587.616" y1="-126.615" x2="-6.04593" y2="86.4924" gradientUnits="userSpaceOnUse">
<stop stop-color="#F8FBFF" stop-opacity="0.49"/>
<stop offset="1" stop-color="#F8FBFF" stop-opacity="0"/>
</linearGradient>
</defs>
</svg>
