<svg width="160" height="42" viewBox="0 0 160 42" fill="none" xmlns="http://www.w3.org/2000/svg">
<path fill-rule="evenodd" clip-rule="evenodd" d="M0 34.9972L6.05438 31.4979L12.1047 27.9985L14.5006 34.9972L12.1047 41.9999L6.05438 38.5006L0 34.9972Z" fill="#E60470"/>
<path fill-rule="evenodd" clip-rule="evenodd" d="M24.2095 34.9972L20.2353 28.9109L12.1047 27.9985V34.9972V41.9999L18.1551 38.5006L24.2095 34.9972Z" fill="#CB4B96"/>
<path fill-rule="evenodd" clip-rule="evenodd" d="M12.1047 28.0149L16.2651 22.4922L24.2095 21.0122V28.0149V35.0176L18.1551 31.5142L12.1047 28.0149Z" fill="#6A2E87"/>
<path fill-rule="evenodd" clip-rule="evenodd" d="M24.2095 21.004L18.1552 17.5047L12.1048 14.0054L9.07764 21.004L12.1048 28.0067L18.1552 24.5074L24.2095 21.004Z" fill="#EF4E54"/>
<path fill-rule="evenodd" clip-rule="evenodd" d="M0 21.0121L4.54079 13.8472L12.1047 14.0094V21.0121V28.0148L6.05438 24.5114L0 21.0121Z" fill="#BED12A"/>
<path fill-rule="evenodd" clip-rule="evenodd" d="M12.1047 14.0054L8.32073 7.72445L0 7.00269V14.0054V21.004L6.05438 17.5047L12.1047 14.0054Z" fill="#2FB24A"/>
<path fill-rule="evenodd" clip-rule="evenodd" d="M0 7.0027L6.05438 3.49932L12.1047 0L14.5006 7.0027L12.1047 14.0054L6.05438 10.502L0 7.0027Z" fill="#2160B2"/>
<path fill-rule="evenodd" clip-rule="evenodd" d="M24.2095 7.0027L18.1551 10.502L12.1047 14.0054V7.0027V0L18.1551 3.49932L24.2095 7.0027Z" fill="#01B2DC"/>
<path d="M35.9499 16.5964C35.946 16.2024 36.0362 15.8131 36.2129 15.4611C36.3901 15.105 36.6479 14.7954 36.9657 14.5568C37.3224 14.2895 37.722 14.0852 38.1474 13.9527C38.6463 13.7963 39.1667 13.7197 39.6893 13.7256C40.5767 13.7217 41.4578 13.8754 42.2916 14.1797C43.193 14.5213 44.0293 15.0151 44.7643 15.6395L45.9218 14.1027C45.0793 13.4177 44.1341 12.8704 43.1212 12.4808C42.0362 12.0988 40.8917 11.9148 39.7419 11.9374C38.9567 11.9291 38.1757 12.0525 37.4311 12.3023C36.7641 12.5251 36.1429 12.8672 35.5978 13.312C35.0852 13.722 34.6704 14.2415 34.3837 14.8326C34.0932 15.4368 33.9464 16.1002 33.9547 16.7708C33.9388 17.4263 34.0587 18.0779 34.3068 18.6847C34.5516 19.2333 34.9218 19.7167 35.3873 20.0957C35.9426 20.5372 36.5659 20.885 37.2328 21.1257C38.0886 21.4413 38.9665 21.6934 39.8593 21.8799C40.63 22.041 41.3896 22.2509 42.1337 22.5084C42.6331 22.677 43.1029 22.9233 43.5259 23.2382C43.8332 23.4718 44.0756 23.7803 44.2301 24.1344C44.3695 24.4907 44.4383 24.8708 44.4325 25.2535C44.4438 25.6777 44.3526 26.0984 44.1665 26.4797C43.9805 26.861 43.7052 27.1915 43.3641 27.4431C42.5337 28.0344 41.5283 28.3273 40.5109 28.2743C39.4007 28.2956 38.2983 28.0858 37.2733 27.658C36.2482 27.1881 35.3064 26.554 34.4848 25.7806L33.2505 27.2404C34.2238 28.1451 35.3521 28.8662 36.5812 29.3692C37.8111 29.8438 39.1201 30.0791 40.438 30.0625C41.2608 30.0722 42.0801 29.9531 42.8663 29.7098C43.5559 29.4989 44.1989 29.1576 44.7603 28.7042C45.2995 28.2635 45.7322 27.7063 46.0259 27.0743C46.3195 26.4423 46.4666 25.7519 46.456 25.0548C46.485 24.4508 46.3745 23.8482 46.133 23.294C45.8915 22.7398 45.5256 22.2489 45.0638 21.8596C44.133 21.0892 42.6882 20.485 40.7294 20.0471C39.9195 19.8898 39.1216 19.6757 38.3417 19.4064C37.8204 19.231 37.3291 18.9766 36.8847 18.6522C36.565 18.4153 36.3136 18.0977 36.1563 17.7318C36.019 17.3707 35.9517 16.9868 35.958 16.6005L35.9499 16.5964ZM66.6346 17.8129C66.6489 17.0033 66.4902 16.2 66.1692 15.457C65.8691 14.7739 65.413 14.1711 64.8377 13.6972C64.2204 13.1974 63.5128 12.8215 62.7535 12.5902C61.8804 12.3142 60.9695 12.1773 60.0541 12.1848H53.4695V29.8071H55.4566V23.591H59.7263C60.6292 23.5983 61.5286 23.4768 62.3973 23.2301C63.1925 23.0081 63.9383 22.6366 64.5949 22.1353C65.2211 21.6501 65.7313 21.0308 66.0882 20.3228C66.4729 19.5419 66.6631 18.6794 66.6427 17.8088L66.6346 17.8129ZM64.611 17.8859C64.6186 18.4367 64.5039 18.9824 64.2751 19.4835C64.0462 19.9646 63.7114 20.3875 63.2958 20.7202C62.8385 21.0779 62.3182 21.3461 61.7619 21.5109C61.1227 21.7025 60.4581 21.7955 59.791 21.7866H55.4566V14.0297H59.9084C61.1274 13.9678 62.333 14.3082 63.3403 14.9988C64.2009 15.6449 64.6313 16.6045 64.6313 17.8777L64.611 17.8859ZM87.7642 29.8192L82.3614 22.6178C83.0238 22.5095 83.6672 22.306 84.2716 22.0137C84.8349 21.7465 85.3482 21.3844 85.7892 20.9432C86.2204 20.5138 86.5592 20.0004 86.7848 19.4348C87.0274 18.8054 87.1455 18.1347 87.1329 17.4601C87.1432 16.718 86.9898 15.9828 86.6836 15.307C86.3838 14.6647 85.9457 14.0969 85.4007 13.6445C84.8098 13.1645 84.1325 12.8025 83.4055 12.5781C82.5556 12.3129 81.6691 12.1843 80.779 12.1969H73.2313V29.8192H75.2143V22.9625H80.2367L85.34 29.8111L87.7642 29.8192ZM85.1255 17.5331C85.1343 18.065 85.0178 18.5915 84.7856 19.0699C84.5636 19.5189 84.2409 19.9103 83.8426 20.2133C83.4148 20.539 82.9304 20.7823 82.414 20.931C81.8269 21.1046 81.2171 21.1894 80.605 21.1824H75.2143V14.0297H80.6414C82.066 14.0297 83.1708 14.3352 83.9559 14.9461C84.3452 15.2492 84.6559 15.6418 84.8616 16.0907C85.0673 16.5396 85.162 17.0316 85.1377 17.525L85.1255 17.5331ZM94.5349 12.1969V29.8192H96.518V12.1888L94.5349 12.1969ZM115.223 13.9851L103.843 28.4852V29.8192H117.935V28.0311H106.542L117.947 13.531V12.1969H104.232V13.9851H115.223ZM135.357 13.9851L123.977 28.4852V29.8192H138.077V28.0311H126.677L138.077 13.5228V12.1888H124.366V13.977L135.357 13.9851ZM152.691 22.8246L160.004 12.201H157.689L151.712 21L145.766 12.1888H143.338L150.684 22.8246V29.799H152.707L152.691 22.8246Z" fill="#383431"/>
</svg>
