<svg width="375" height="812" viewBox="0 0 375 812" fill="none" xmlns="http://www.w3.org/2000/svg">
<g clip-path="url(#clip0)">
<mask id="path-1-inside-1" fill="white">
<path d="M-110.605 1088.69C-276.605 1138.57 -431.22 1235.17 -532.206 897.451C-593.881 733.375 -616.615 633.308 -320.736 475.4C-299.14 463.875 -279.235 449.292 -260.711 433.29C9.77481 199.616 256.929 459.861 217.558 723.981C215.44 738.191 213.681 752.678 212.983 767.028C198.496 1064.54 1.85278 1054.9 -110.605 1088.69Z"/>
</mask>
<path d="M-110.605 1088.69L-111.036 1087.25L-110.605 1088.69ZM-532.206 897.451L-530.769 897.021L-530.783 896.972L-530.802 896.923L-532.206 897.451ZM217.558 723.981L216.075 723.76L216.075 723.76L217.558 723.981ZM212.983 767.028L214.481 767.101L214.481 767.101L212.983 767.028ZM-320.736 475.4L-320.03 476.723L-320.736 475.4ZM-260.711 433.29L-261.691 432.154L-260.711 433.29ZM-111.036 1087.25C-131.813 1093.5 -152.412 1100.47 -172.712 1107.22C-193.023 1113.98 -213.041 1120.51 -232.706 1125.89C-272.053 1136.67 -309.848 1142.8 -345.543 1136.94C-416.687 1125.25 -480.322 1065.72 -530.769 897.021L-533.643 897.881C-483.104 1066.89 -418.938 1127.92 -346.029 1139.9C-309.696 1145.86 -271.401 1139.6 -231.914 1128.79C-212.163 1123.38 -192.077 1116.82 -171.765 1110.07C-151.442 1103.31 -130.896 1096.35 -110.173 1090.13L-111.036 1087.25ZM-530.802 896.923C-561.669 814.807 -582.52 749.292 -559.143 684.623C-535.757 619.926 -467.933 555.658 -320.03 476.723L-321.442 474.077C-469.418 553.051 -538.167 617.77 -561.965 683.603C-585.772 749.463 -564.418 816.019 -533.61 897.979L-530.802 896.923ZM-259.73 434.425C-192.299 376.17 -126.431 348.791 -66.2265 344.483C-6.0295 340.176 48.6373 358.924 93.7128 393.157C183.908 461.658 235.688 592.182 216.075 723.76L219.042 724.203C238.799 591.661 186.688 460.002 95.5272 390.768C49.9247 356.134 -5.45246 337.127 -66.4406 341.491C-127.421 345.854 -193.88 373.572 -261.691 432.154L-259.73 434.425ZM211.484 766.955C204.26 915.323 151.668 986.776 87.1566 1025.47C54.831 1044.86 19.4233 1056.07 -14.9973 1064.56C-49.3008 1073.01 -82.8984 1078.8 -111.036 1087.25L-110.173 1090.13C-82.0822 1081.69 -48.9279 1076.01 -14.2794 1067.47C20.252 1058.96 55.9963 1047.66 88.6996 1028.04C154.246 988.728 207.219 916.245 214.481 767.101L211.484 766.955ZM216.075 723.76C213.953 737.994 212.187 752.536 211.484 766.955L214.481 767.101C215.176 752.821 216.927 738.388 219.042 724.203L216.075 723.76ZM-320.03 476.723C-298.31 465.132 -278.313 450.478 -259.73 434.425L-261.691 432.154C-280.156 448.107 -299.97 462.617 -321.442 474.077L-320.03 476.723Z" fill="#FF7394" mask="url(#path-1-inside-1)"/>
<mask id="path-3-inside-2" fill="white">
<path d="M-111.498 1106.05C-293.104 1151.07 -452.65 1261.91 -560.104 902.565C-625.731 727.979 -641.929 613.183 -327.097 445.159C-304.118 432.895 -282.938 417.379 -263.227 400.351C24.5844 151.709 287.571 428.625 245.678 709.664C243.424 724.783 241.552 740.199 240.809 755.467C225.394 1072.04 9.77842 1075.99 -111.498 1106.05Z"/>
</mask>
<path d="M-111.498 1106.05L-112.099 1103.63L-112.099 1103.63L-111.498 1106.05ZM-560.104 902.565L-557.709 901.849L-557.734 901.766L-557.764 901.685L-560.104 902.565ZM245.678 709.664L248.15 710.032L248.15 710.032L245.678 709.664ZM240.809 755.467L238.312 755.346L240.809 755.467ZM-327.097 445.159L-325.92 447.365L-325.92 447.365L-327.097 445.159ZM-263.227 400.351L-264.862 398.46L-263.227 400.351ZM-112.099 1103.63C-134.868 1109.27 -157.278 1115.94 -179.231 1122.58C-201.203 1129.22 -222.701 1135.82 -243.734 1141.36C-285.823 1152.45 -325.743 1159.18 -363.232 1153.47C-437.753 1142.12 -504.057 1081.27 -557.709 901.849L-562.5 903.281C-508.698 1083.2 -441.502 1146.61 -363.985 1158.42C-325.454 1164.29 -284.721 1157.33 -242.46 1146.2C-221.319 1140.63 -199.717 1134 -177.784 1127.36C-155.831 1120.73 -133.529 1114.09 -110.896 1108.48L-112.099 1103.63ZM-557.764 901.685C-590.595 814.347 -610.667 742.838 -583.935 672.287C-557.177 601.668 -483.249 531.33 -325.92 447.365L-328.274 442.954C-485.778 527.012 -561.166 598.084 -588.61 670.515C-616.081 743.015 -595.24 816.198 -562.445 903.445L-557.764 901.685ZM-261.593 402.243C-189.956 340.356 -120.048 311.325 -56.2207 306.758C7.5939 302.192 65.5485 322.063 113.352 358.368C209.035 431.036 264.032 569.579 243.205 709.295L248.15 710.032C269.216 568.71 213.667 428.276 116.376 354.386C67.694 317.414 8.55563 297.111 -56.5775 301.771C-121.698 306.43 -192.592 336.026 -264.862 398.46L-261.593 402.243ZM238.312 755.346C230.637 912.965 173.205 992.272 103.03 1036.08C67.8432 1058.05 29.3175 1071.17 -8.0705 1080.69C-26.7633 1085.44 -45.144 1089.29 -62.6754 1092.89C-80.1855 1096.49 -96.8786 1099.85 -112.099 1103.63L-110.896 1108.48C-95.7974 1104.74 -79.2235 1101.4 -61.6688 1097.79C-44.1356 1094.19 -25.654 1090.32 -6.83752 1085.53C30.793 1075.96 69.874 1062.67 105.678 1040.32C177.484 995.496 235.566 914.539 243.306 755.589L238.312 755.346ZM243.205 709.295C240.945 724.455 239.061 739.961 238.312 755.346L243.306 755.589C244.044 740.437 245.902 725.112 248.15 710.032L243.205 709.295ZM-325.92 447.365C-302.735 434.991 -281.401 419.356 -261.593 402.243L-264.862 398.46C-284.474 415.403 -305.502 430.8 -328.274 442.954L-325.92 447.365Z" fill="#FF7394" mask="url(#path-3-inside-2)"/>
<mask id="path-5-inside-3" fill="white">
<path d="M726.544 40.9695C797.669 176.204 883.063 294.449 610.463 414.615C479.348 483.573 401.538 542.819 238.032 311.284C226.098 294.384 211.778 279.223 196.412 265.37C-27.9634 63.0901 164.313 -171.514 389.941 -166.245C402.08 -165.962 414.413 -166.009 426.52 -166.93C677.536 -186.038 680.349 -46.8647 726.544 40.9695Z"/>
</mask>
<path d="M726.544 40.9695L724.331 42.1332L726.544 40.9695ZM610.463 414.615L609.455 412.328L609.376 412.362L609.3 412.403L610.463 414.615ZM389.941 -166.245L389.883 -163.746L389.941 -166.245ZM426.52 -166.93L426.331 -169.423L426.52 -166.93ZM238.032 311.284L240.074 309.842L238.032 311.284ZM196.412 265.37L194.738 267.227L196.412 265.37ZM724.331 42.1332C742.17 76.0511 760.753 108.632 774.45 140.493C788.134 172.323 796.788 203.113 794.905 233.287C791.162 293.298 745.551 352.335 609.455 412.328L611.472 416.903C747.976 356.73 795.968 296.561 799.896 233.599C801.849 202.286 792.856 170.648 779.043 138.518C765.243 106.418 746.48 73.5049 728.757 39.8058L724.331 42.1332ZM609.3 412.403C576.418 429.696 547.143 446.234 518.999 457.809C490.91 469.361 464.214 475.847 436.638 473.146C381.534 467.751 321.773 425.533 240.074 309.842L235.99 312.726C317.796 428.569 378.694 472.497 436.151 478.123C464.854 480.933 492.415 474.149 520.901 462.433C549.332 450.74 578.951 434.013 611.627 416.828L609.3 412.403ZM198.086 263.514C142.302 213.223 112.591 161.087 102.716 111.366C92.8431 61.6563 102.752 14.1458 126.589 -27.0156C174.308 -109.419 277.88 -166.362 389.883 -163.746L389.999 -168.745C276.374 -171.398 170.994 -113.673 122.262 -29.5213C97.8726 12.5948 87.6813 61.3337 97.8115 112.34C107.939 163.333 138.334 216.377 194.738 267.227L198.086 263.514ZM426.71 -164.438C551.735 -173.955 614.292 -144.033 651.456 -101.44C670.123 -80.0463 682.527 -55.3004 693.175 -30.278C703.766 -5.3924 712.722 20.0604 724.331 42.1332L728.757 39.8058C717.268 17.9614 708.55 -6.92022 697.776 -32.2359C687.061 -57.4147 674.411 -82.7367 655.224 -104.727C616.679 -148.903 552.322 -179.014 426.331 -169.423L426.71 -164.438ZM389.883 -163.746C402.062 -163.462 414.487 -163.507 426.71 -164.438L426.331 -169.423C414.34 -168.511 402.097 -168.462 389.999 -168.745L389.883 -163.746ZM240.074 309.842C228.005 292.751 213.548 277.453 198.086 263.514L194.738 267.227C210.008 280.993 224.191 296.017 235.99 312.726L240.074 309.842Z" fill="#80DB7F" mask="url(#path-5-inside-3)"/>
<mask id="path-7-inside-4" fill="white">
<path d="M733.144 32.1661C808.825 176.063 899.69 301.883 609.628 429.746C470.115 503.121 387.32 566.161 213.341 319.795C200.642 301.813 185.405 285.681 169.055 270.941C-69.693 55.7036 134.9 -193.928 374.98 -188.322C387.896 -188.02 401.02 -188.07 413.903 -189.051C680.998 -209.382 683.99 -61.2944 733.144 32.1661Z"/>
</mask>
<path d="M733.144 32.1661L731.817 32.8643L733.144 32.1661ZM609.628 429.746L609.023 428.373L608.976 428.394L608.93 428.418L609.628 429.746ZM374.98 -188.322L374.945 -186.822L374.98 -188.322ZM413.903 -189.051L413.789 -190.547L413.903 -189.051ZM213.341 319.795L214.566 318.93L213.341 319.795ZM169.055 270.941L168.05 272.055L169.055 270.941ZM731.817 32.8643C750.772 68.9041 770.587 103.649 785.185 137.606C799.775 171.545 809.062 204.504 807.042 236.875C803.016 301.414 753.931 364.496 609.023 428.373L610.233 431.118C755.386 367.133 805.9 303.372 810.037 237.062C812.099 204.008 802.608 170.54 787.941 136.421C773.281 102.32 753.358 67.3763 734.472 31.4678L731.817 32.8643ZM608.93 428.418C573.99 446.794 542.76 464.436 512.746 476.779C482.766 489.109 454.16 496.079 424.555 493.181C365.376 487.386 301.523 442.067 214.566 318.93L212.115 320.661C299.137 443.889 363.672 490.234 424.263 496.166C454.544 499.131 483.669 491.982 513.888 479.554C544.073 467.139 575.51 449.385 610.327 431.073L608.93 428.418ZM170.059 269.827C110.558 216.186 78.7851 160.499 68.2189 107.297C57.6541 54.1031 68.2635 3.26434 93.7551 -40.7552C144.766 -128.843 255.392 -189.614 374.945 -186.822L375.015 -189.821C254.488 -192.636 142.777 -131.395 91.159 -42.2586C65.3357 2.33374 54.557 53.9096 65.2763 107.882C75.9942 161.846 108.177 218.078 168.05 272.055L170.059 269.827ZM414.017 -187.555C547.274 -197.699 614.256 -165.816 654.121 -120.128C674.104 -97.2256 687.36 -70.7609 698.706 -44.0994C710.017 -17.52 719.492 9.43066 731.817 32.8643L734.472 31.4678C722.219 8.17127 712.887 -18.4367 701.466 -45.2741C690.08 -72.0295 676.677 -98.8398 656.381 -122.1C615.688 -168.738 547.626 -200.734 413.789 -190.547L414.017 -187.555ZM374.945 -186.822C387.886 -186.52 401.065 -186.569 414.017 -187.555L413.789 -190.547C400.976 -189.571 387.907 -189.52 375.015 -189.821L374.945 -186.822ZM214.566 318.93C201.786 300.833 186.467 284.619 170.059 269.827L168.05 272.055C184.343 286.743 199.498 302.793 212.115 320.661L214.566 318.93Z" fill="#80DB7F" mask="url(#path-7-inside-4)"/>
</g>
<defs>
<clipPath id="clip0">
<rect width="375" height="812" fill="white"/>
</clipPath>
</defs>
</svg>
