 <svg
    width="700"
    height="968"
    viewBox="0 0 700 968"
    fill="none"
    xmlns="http://www.w3.org/2000/svg"
  >
    <mask id="path-1-inside-1" fill="white">
      <path
        d="M-107.19 654.492C-219.3 527.124 -342.372 421.82 -79.5622 220.878C43.9266 112.182 112.423 27.9021 349.409 235.063C366.707 250.183 386.125 262.803 406.33 273.739C701.367 433.416 555.16 736.878 310.263 790.162C297.088 793.029 283.789 796.303 270.963 800.462C5.03546 886.691 -34.3746 737.217 -107.19 654.492Z"
      ></path>
    </mask>
    <path
      d="M-107.19 654.492L-106.064 653.501L-107.19 654.492ZM-79.5622 220.878L-78.6511 222.069L-78.61 222.038L-78.5711 222.004L-79.5622 220.878ZM310.263 790.162L309.945 788.697L310.263 790.162ZM270.963 800.462L271.425 801.889L270.963 800.462ZM349.409 235.063L348.422 236.192L349.409 235.063ZM406.33 273.739L407.044 272.42L406.33 273.739ZM-106.064 653.501C-134.141 621.603 -162.777 591.224 -185.927 560.364C-209.066 529.519 -226.588 498.359 -232.494 465.014C-244.27 398.523 -209.95 322.459 -78.6511 222.069L-80.4733 219.686C-211.984 320.239 -247.533 397.298 -235.448 465.537C-229.423 499.556 -211.583 531.163 -188.327 562.164C-165.083 593.15 -136.294 623.697 -108.316 655.483L-106.064 653.501ZM-78.5711 222.004C-47.6465 194.784 -20.2984 169.215 7.11619 149.32C34.502 129.446 61.8159 115.343 92.5712 111.01C154.052 102.347 229.971 132.649 348.422 236.192L350.397 233.933C231.861 130.316 155.038 99.178 92.1526 108.039C60.7244 112.467 32.9484 126.867 5.35416 146.892C-22.2114 166.897 -49.7336 192.624 -80.5533 219.752L-78.5711 222.004ZM405.616 275.058C479.155 314.858 525.073 363.547 548.866 414.931C572.655 466.308 574.381 520.497 559.333 571.423C529.221 673.328 431.917 762.158 309.945 788.697L310.582 791.628C433.507 764.882 531.754 675.34 562.21 572.273C577.446 520.713 575.711 465.767 551.588 413.67C527.468 361.581 481.024 312.458 407.044 272.42L405.616 275.058ZM270.5 799.036C137.813 842.06 62.0167 826.177 10.3358 789.611C-15.5679 771.283 -35.5184 747.688 -53.5774 723.43C-71.5832 699.243 -87.809 674.24 -106.064 653.501L-108.316 655.483C-90.1632 676.106 -74.157 700.81 -55.9839 725.221C-37.8639 749.561 -17.6887 773.457 8.603 792.06C61.3127 829.354 138.185 845.093 271.425 801.889L270.5 799.036ZM309.945 788.697C296.745 791.568 283.392 794.855 270.5 799.036L271.425 801.889C284.185 797.752 297.431 794.49 310.582 791.628L309.945 788.697ZM348.422 236.192C365.825 251.405 385.342 264.086 405.616 275.058L407.044 272.42C386.907 261.521 367.589 248.961 350.397 233.933L348.422 236.192Z"
      fill="#AFBBCB"
      fill-opacity="0.7"
      mask="url(#path-1-inside-1)"
    ></path>
    <mask id="path-3-inside-2" fill="white">
      <path
        d="M-120.498 609.229C-219.104 497.084 -327.362 404.377 -96.0601 227.322C12.6282 131.553 72.922 57.3044 281.382 239.688C296.597 253 313.679 264.109 331.454 273.734C591.005 414.279 462.27 681.593 246.773 728.594C235.179 731.123 223.476 734.011 212.189 737.678C-21.8215 813.702 -56.4535 682.066 -120.498 609.229Z"
      ></path>
    </mask>
    <path
      d="M-120.498 609.229L-119.372 608.238L-120.498 609.229ZM-96.0601 227.322L-95.1484 228.513L-95.1073 228.481L-95.0684 228.447L-96.0601 227.322ZM246.773 728.594L246.453 727.129L246.773 728.594ZM212.189 737.678L212.653 739.104L212.189 737.678ZM281.382 239.688L280.394 240.816L281.382 239.688ZM331.454 273.734L332.168 272.415L331.454 273.734ZM-119.372 608.238C-144.072 580.147 -169.251 553.409 -189.606 526.244C-209.948 499.094 -225.338 471.683 -230.518 442.356C-240.841 383.902 -210.693 316.959 -95.1484 228.513L-96.9718 226.131C-212.729 314.74 -244.103 382.678 -233.472 442.878C-228.174 472.878 -212.467 500.736 -192.006 528.043C-171.558 555.334 -146.227 582.239 -121.625 610.219L-119.372 608.238ZM-95.0684 228.447C-67.8439 204.459 -43.7835 181.941 -19.6649 164.417C4.42506 146.914 28.4346 134.503 55.4565 130.683C109.47 123.047 176.206 149.662 280.394 240.816L282.369 238.559C178.098 147.33 110.457 119.878 55.0366 127.713C27.3415 131.628 2.8698 144.336 -21.4283 161.99C-45.6977 179.624 -69.9321 202.3 -97.0518 226.196L-95.0684 228.447ZM330.74 275.053C395.407 310.07 435.763 352.912 456.663 398.118C477.56 443.318 479.063 490.999 465.818 535.818C439.312 625.509 353.725 703.732 246.453 727.129L247.093 730.06C355.317 706.455 441.846 627.52 468.695 536.668C482.127 491.215 480.616 442.778 459.386 396.859C438.16 350.947 397.277 307.671 332.168 272.415L330.74 275.053ZM211.726 736.251C94.997 774.173 28.3751 760.198 -17.0249 728.052C-39.7883 711.934 -57.3219 691.178 -73.2009 669.823C-89.0267 648.54 -103.309 626.506 -119.372 608.238L-121.625 610.219C-105.665 628.371 -91.6015 650.105 -75.6083 671.613C-59.6685 693.05 -41.9101 714.108 -18.7585 730.501C27.6713 763.376 95.371 777.206 212.653 739.104L211.726 736.251ZM246.453 727.129C234.836 729.663 223.079 732.563 211.726 736.251L212.653 739.104C223.873 735.459 235.523 732.584 247.093 730.06L246.453 727.129ZM280.394 240.816C295.715 254.221 312.896 265.391 330.74 275.053L332.168 272.415C314.461 262.827 297.479 251.778 282.369 238.559L280.394 240.816Z"
      fill="#AFBBCB"
      fill-opacity="0.6"
      mask="url(#path-3-inside-2)"
    ></path>
    <mask id="path-5-inside-3" fill="white">
      <path
        d="M-112.012 665.719C-231.304 530.192 -362.259 418.144 -82.615 204.33C48.7839 88.6719 121.668 -1.00693 373.835 219.423C392.24 235.512 412.902 248.941 434.401 260.577C748.336 430.482 592.764 753.383 332.181 810.08C318.162 813.13 304.01 816.614 290.363 821.04C7.40161 912.792 -34.5329 753.744 -112.012 665.719Z"
      ></path>
    </mask>
    <path
      d="M-112.012 665.719L-111.262 665.059L-112.012 665.719ZM-82.615 204.33L-82.0076 205.124L-81.9801 205.103L-81.9543 205.08L-82.615 204.33ZM332.181 810.08L331.968 809.103L332.181 810.08ZM290.363 821.04L290.671 821.991L290.363 821.04ZM373.835 219.423L373.176 220.176L373.835 219.423ZM434.401 260.577L434.877 259.697L434.401 260.577ZM-111.262 665.059C-141.117 631.14 -171.618 598.781 -196.27 565.919C-220.914 533.068 -239.622 499.823 -245.93 464.208C-258.521 393.11 -221.759 311.977 -82.0076 205.124L-83.2223 203.535C-223.115 310.496 -260.697 392.294 -247.899 464.557C-241.512 500.621 -222.592 534.163 -197.87 567.119C-173.156 600.065 -142.553 632.535 -112.763 666.38L-111.262 665.059ZM-81.9543 205.08C-49.0696 176.135 -19.9351 148.897 9.26555 127.706C38.447 106.529 67.6022 91.4637 100.461 86.8337C166.16 77.5765 247.121 109.986 373.176 220.176L374.493 218.67C248.381 108.431 166.817 75.4641 100.182 84.8533C66.8746 89.5464 37.4112 104.81 8.09087 126.088C-21.2104 147.352 -50.461 174.695 -83.2757 203.579L-81.9543 205.08ZM433.925 261.456C512.262 303.853 561.226 355.747 586.608 410.563C611.987 465.373 613.826 523.184 597.777 577.498C565.667 686.161 461.943 780.823 331.968 809.103L332.394 811.057C463.003 782.639 567.356 687.503 599.695 578.065C615.869 523.328 614.024 465.013 588.423 409.722C562.823 354.436 513.508 302.253 434.877 259.697L433.925 261.456ZM290.054 820.089C148.758 865.905 67.8929 849.033 12.6971 809.98C-14.9429 790.423 -36.216 765.257 -55.4439 739.429C-74.6362 713.648 -91.8578 687.103 -111.262 665.059L-112.763 666.38C-93.4272 688.347 -76.3522 714.693 -57.0481 740.623C-37.7796 766.506 -16.3567 791.873 11.542 811.612C67.4236 851.151 149.006 867.927 290.671 821.991L290.054 820.089ZM331.968 809.103C317.933 812.157 303.746 815.649 290.054 820.089L290.671 821.991C304.274 817.58 318.39 814.104 332.394 811.057L331.968 809.103ZM373.176 220.176C391.652 236.327 412.38 249.796 433.925 261.456L434.877 259.697C413.423 248.086 392.828 234.698 374.493 218.67L373.176 220.176Z"
      fill="#AFBBCB"
      mask="url(#path-5-inside-3)"
    ></path>
  </svg>